<svg xmlns="http://www.w3.org/2000/svg" width="143.23" height="48.088" viewBox="0 0 143.23 48.088">
  <g id="Group_1544" data-name="Group 1544" transform="translate(-322.526 217.185)">
    <g id="Group_1541" data-name="Group 1541" transform="translate(322.527 -217.185)">
      <path id="Path_4786" data-name="Path 4786" d="M359.253-204.968c.587-3.741,0-6.286-2.027-8.592-2.228-2.538-6.252-3.626-11.4-3.626H330.878a2.138,2.138,0,0,0-2.112,1.805l-6.224,39.465a1.283,1.283,0,0,0,1.267,1.483h9.227l-.637,4.038a1.122,1.122,0,0,0,1.109,1.3h7.777a1.87,1.87,0,0,0,1.848-1.579l.077-.4,1.465-9.291.095-.513a1.871,1.871,0,0,1,1.848-1.579h1.163c7.534,0,13.434-3.061,15.158-11.914.72-3.7.348-6.787-1.557-8.958a7.414,7.414,0,0,0-2.129-1.642h0" transform="translate(-322.527 217.185)" fill="#009cde"/>
      <path id="Path_4787" data-name="Path 4787" d="M359.253-204.968c.587-3.741,0-6.286-2.027-8.592-2.228-2.538-6.252-3.626-11.4-3.626H330.878a2.138,2.138,0,0,0-2.112,1.805l-6.224,39.465a1.283,1.283,0,0,0,1.267,1.483h9.227l2.318-14.7-.072.461a2.13,2.13,0,0,1,2.1-1.8h4.385c8.613,0,15.357-3.5,17.327-13.619.059-.3.108-.59.153-.875" transform="translate(-322.527 217.185)" fill="#012169"/>
      <path id="Path_4788" data-name="Path 4788" d="M337.845-204.918a1.871,1.871,0,0,1,1.04-1.4,1.863,1.863,0,0,1,.807-.183h11.716a24.433,24.433,0,0,1,3.865.281q.507.082.987.188t.93.238q.226.066.443.138a10.573,10.573,0,0,1,1.62.684c.587-3.741,0-6.286-2.027-8.592-2.228-2.538-6.252-3.626-11.4-3.626H330.879a2.138,2.138,0,0,0-2.112,1.805l-6.224,39.465a1.283,1.283,0,0,0,1.267,1.483h9.227l2.318-14.7Z" transform="translate(-322.527 217.185)" fill="#003087"/>
    </g>
    <g id="Group_1542" data-name="Group 1542" transform="translate(370.302 -193.695)">
      <path id="Path_4789" data-name="Path 4789" d="M634.409-140.523a.779.779,0,0,1,.77-.658h7.209a8.949,8.949,0,0,1,9.178,10.68,13.084,13.084,0,0,1-12.549,10.68h-7.344a.454.454,0,0,1-.449-.525Zm3.022,16h1.246a6.794,6.794,0,0,0,7.111-5.977c.595-3.825-1.586-5.977-5.156-5.977h-.915a.454.454,0,0,0-.449.383Z" transform="translate(-581.288 141.747)" fill="#003087"/>
      <path id="Path_4790" data-name="Path 4790" d="M594.515-135.821l-.462,2.912h5.729a.455.455,0,0,1,.449.525l-.551,3.519a.779.779,0,0,1-.77.659h-4.93a.779.779,0,0,0-.769.655l-.489,3.028h6.069a.455.455,0,0,1,.449.525l-.551,3.519a.779.779,0,0,1-.77.659H586.964a.454.454,0,0,1-.449-.525l3.184-20.178a.779.779,0,0,1,.77-.658h10.956a.455.455,0,0,1,.449.525l-.551,3.519a.779.779,0,0,1-.77.659h-5.268A.779.779,0,0,0,594.515-135.821Z" transform="translate(-550.73 141.747)" fill="#003087"/>
      <path id="Path_4791" data-name="Path 4791" d="M700.436-119.82h-4.354a.455.455,0,0,1-.449-.525l3.184-20.178a.779.779,0,0,1,.77-.658h4.355a.454.454,0,0,1,.449.525l-3.184,20.178A.779.779,0,0,1,700.436-119.82Z" transform="translate(-625.309 141.747)" fill="#003087"/>
      <path id="Path_4792" data-name="Path 4792" d="M545.291-119.82h-5.706a.631.631,0,0,1-.569-.358l-3.766-7.858h-.057l-1.219,7.684a.631.631,0,0,1-.623.532H528.87a.454.454,0,0,1-.449-.525l3.2-20.3a.631.631,0,0,1,.623-.532h7.761c4.221,0,7.111,2.011,6.4,6.573a7.037,7.037,0,0,1-5.637,6.034l4.905,8.063A.454.454,0,0,1,545.291-119.82Zm-9.531-11.785h.538c1.813,0,3.9-.342,4.277-2.663s-.831-2.656-2.768-2.663h-.787a.482.482,0,0,0-.476.406Z" transform="translate(-511.023 141.747)" fill="#003087"/>
      <path id="Path_4793" data-name="Path 4793" d="M733.423-119.82h-4.354a.454.454,0,0,1-.449-.525l2.551-16.132h-4.058a.454.454,0,0,1-.449-.525l.551-3.519a.779.779,0,0,1,.77-.659h13.532a.454.454,0,0,1,.449.525l-.551,3.519a.779.779,0,0,1-.77.659h-3.923l-2.531,16A.779.779,0,0,1,733.423-119.82Z" transform="translate(-646.518 141.747)" fill="#003087"/>
      <path id="Path_4794" data-name="Path 4794" d="M491.149-136.334a.484.484,0,0,1-.829.251,5.332,5.332,0,0,0-3.85-1.49,6.829,6.829,0,0,0-6.623,5.915c-.51,3.368,1.415,5.8,4.868,5.8A7.357,7.357,0,0,0,488.9-127.3a.482.482,0,0,1,.754.471l-.79,4.888a.767.767,0,0,1-.541.612,15.481,15.481,0,0,1-4.574.854c-9.208,0-10.68-7.866-10.206-11.209,1.331-9.376,8.938-11.524,13.6-11.265a13.719,13.719,0,0,1,4.168.779.958.958,0,0,1,.607,1.049Z" transform="translate(-473.468 142.971)" fill="#003087"/>
    </g>
    <g id="Group_1543" data-name="Group 1543" transform="translate(373.915 -214.513)">
      <path id="Path_4795" data-name="Path 4795" d="M600.689-208.744h-4.81a.668.668,0,0,0-.66.564l-1.945,12.333a.4.4,0,0,0,.4.463h2.468a.468.468,0,0,0,.462-.4l.551-3.5a.668.668,0,0,1,.66-.564h1.522c3.168,0,5-1.533,5.475-4.572a3.7,3.7,0,0,0-.614-3.1A4.461,4.461,0,0,0,600.689-208.744Zm.555,4.5c-.263,1.727-1.581,1.727-2.857,1.727h-.725l.509-3.223a.4.4,0,0,1,.4-.338h.333c.868,0,1.688,0,2.111.495A1.6,1.6,0,0,1,601.244-204.24Z" transform="translate(-558.963 208.744)" fill="#009cde"/>
      <path id="Path_4796" data-name="Path 4796" d="M492.3-208.744h-4.81a.668.668,0,0,0-.66.564l-1.945,12.333a.4.4,0,0,0,.4.463h2.3a.668.668,0,0,0,.66-.564l.525-3.327a.668.668,0,0,1,.66-.564h1.522c3.168,0,5-1.533,5.475-4.572a3.7,3.7,0,0,0-.613-3.1A4.462,4.462,0,0,0,492.3-208.744Zm.555,4.5c-.263,1.727-1.582,1.727-2.857,1.727h-.726l.509-3.223a.4.4,0,0,1,.4-.338h.333c.868,0,1.688,0,2.111.495A1.6,1.6,0,0,1,492.858-204.24Z" transform="translate(-484.882 208.744)" fill="#003087"/>
      <path id="Path_4797" data-name="Path 4797" d="M530.225-195.156h-2.3a.4.4,0,0,0-.4.338l-.1.644-.161-.233a3.277,3.277,0,0,0-2.72-.966,5.3,5.3,0,0,0-5.141,4.633,4.348,4.348,0,0,0,.857,3.539,3.6,3.6,0,0,0,2.9,1.171,4.41,4.41,0,0,0,3.189-1.318l-.1.64a.4.4,0,0,0,.4.464h2.074a.668.668,0,0,0,.66-.564l1.245-7.884A.4.4,0,0,0,530.225-195.156Zm-3.21,4.483a2.568,2.568,0,0,1-2.6,2.2,1.945,1.945,0,0,1-1.547-.622,1.957,1.957,0,0,1-.361-1.618,2.578,2.578,0,0,1,2.581-2.216,1.94,1.94,0,0,1,1.535.628A1.983,1.983,0,0,1,527.016-190.673Z" transform="translate(-508.429 199.605)" fill="#003087"/>
      <path id="Path_4798" data-name="Path 4798" d="M638.612-195.156h-2.3a.4.4,0,0,0-.4.338l-.1.644-.161-.233a3.277,3.277,0,0,0-2.72-.966,5.3,5.3,0,0,0-5.142,4.633,4.35,4.35,0,0,0,.857,3.539,3.605,3.605,0,0,0,2.9,1.171,4.41,4.41,0,0,0,3.189-1.318l-.1.64a.4.4,0,0,0,.4.464H637.1a.668.668,0,0,0,.66-.564l1.245-7.884A.4.4,0,0,0,638.612-195.156Zm-3.21,4.483a2.568,2.568,0,0,1-2.6,2.2,1.944,1.944,0,0,1-1.547-.622,1.955,1.955,0,0,1-.361-1.618,2.577,2.577,0,0,1,2.581-2.216,1.94,1.94,0,0,1,1.536.628A1.983,1.983,0,0,1,635.4-190.673Z" transform="translate(-582.508 199.605)" fill="#009cde"/>
      <path id="Path_4799" data-name="Path 4799" d="M569.328-194.688h-2.315a.668.668,0,0,0-.553.293l-3.193,4.7-1.353-4.52a.669.669,0,0,0-.64-.477H559a.4.4,0,0,0-.38.53l2.549,7.482-2.4,3.383a.4.4,0,0,0,.327.633h2.313a.668.668,0,0,0,.549-.287l7.7-11.111A.4.4,0,0,0,569.328-194.688Z" transform="translate(-535.264 199.137)" fill="#003087"/>
      <path id="Path_4800" data-name="Path 4800" d="M666.435-208.405l-1.974,12.559a.4.4,0,0,0,.4.463h1.986a.668.668,0,0,0,.66-.564l1.946-12.333a.4.4,0,0,0-.4-.463h-2.222A.4.4,0,0,0,666.435-208.405Z" transform="translate(-607.618 208.744)" fill="#009cde"/>
    </g>
  </g>
</svg>
