<svg xmlns="http://www.w3.org/2000/svg" width="186.5" height="45.185" viewBox="0 0 186.5 45.185">
  <g id="Group_1545" data-name="Group 1545" transform="translate(-302.585 -112.043)">
    <path id="Path_4801" data-name="Path 4801" d="M337.443,144.37h12.745c6.842,0,9.419,3.464,9.021,8.561-.656,8.4-5.737,13.049-12.475,13.049h-3.4c-.924,0-1.545.611-1.8,2.27l-1.46,9.633c-.095.626-.424.993-.918,1.038h-7.992c-.752,0-1.02-.575-.823-1.821l4.88-30.9A1.949,1.949,0,0,1,337.443,144.37Z" transform="translate(-18.585 -21.693)" fill="#009de2" fill-rule="evenodd"/>
    <path id="Path_4802" data-name="Path 4802" d="M485.891,142.634c4.3,0,8.268,2.332,7.725,8.146-.644,6.893-4.359,10.732-10.2,10.748h-5.1c-.735,0-1.088.6-1.281,1.827l-.984,6.274c-.148.947-.634,1.415-1.353,1.415h-4.747c-.757,0-1.021-.484-.853-1.566l3.924-25.148c.193-1.237.666-1.7,1.5-1.7ZM478.159,156.1h3.867c2.417-.091,4.024-1.765,4.186-4.786a2.919,2.919,0,0,0-3.165-3.191l-3.64.016-1.247,7.959Zm28.36,13.021c.433-.393.876-.6.812-.113l-.154,1.166c-.08.607.162.932.729.932h4.217c.709,0,1.056-.288,1.231-1.386l2.6-16.311c.13-.819-.068-1.221-.69-1.221h-4.636c-.419,0-.621.235-.73.873l-.172,1c-.089.524-.329.615-.552.087-.788-1.863-2.794-2.7-5.608-2.641-6.5.134-10.89,5.072-11.359,11.4a7.838,7.838,0,0,0,7.77,8.741,8.381,8.381,0,0,0,6.545-2.533Zm-3.529-2.506a4.236,4.236,0,0,1-4.344-4.971,6.056,6.056,0,0,1,5.823-4.971,4.236,4.236,0,0,1,4.344,4.971,6.056,6.056,0,0,1-5.823,4.971Zm21.22-14.48h-4.26c-.883,0-1.242.646-.961,1.468l5.309,15.548-5.232,7.395c-.437.617-.1,1.182.516,1.182h4.807a1.471,1.471,0,0,0,1.429-.7L542.146,153.6c.5-.722.266-1.477-.559-1.477l-4.545,0c-.78,0-1.093.308-1.541.957l-6.811,9.881-3.03-9.9A1.309,1.309,0,0,0,524.21,152.131Z" transform="translate(-111.704 -20.528)" fill="#113984" fill-rule="evenodd"/>
    <path id="Path_4803" data-name="Path 4803" d="M708.558,142.634c4.3,0,8.268,2.332,7.725,8.146-.644,6.893-4.359,10.732-10.2,10.748h-5.1c-.735,0-1.088.6-1.281,1.827l-.984,6.274c-.149.947-.634,1.415-1.354,1.415H692.62c-.757,0-1.021-.484-.852-1.566l3.924-25.148c.193-1.237.666-1.7,1.5-1.7ZM700.826,156.1h3.867c2.417-.091,4.025-1.765,4.186-4.786a2.919,2.919,0,0,0-3.165-3.191l-3.64.016-1.247,7.959Zm28.36,13.021c.434-.393.876-.6.812-.113l-.154,1.166c-.081.607.161.932.728.932h4.217c.71,0,1.056-.288,1.231-1.386l2.6-16.311c.13-.819-.068-1.221-.69-1.221h-4.636c-.418,0-.621.235-.73.873l-.172,1c-.09.524-.33.615-.552.087-.787-1.863-2.794-2.7-5.607-2.641-6.5.134-10.89,5.072-11.359,11.4a7.838,7.838,0,0,0,7.77,8.741,8.381,8.381,0,0,0,6.545-2.533Zm-3.528-2.506a4.236,4.236,0,0,1-4.344-4.971,6.056,6.056,0,0,1,5.823-4.971,4.236,4.236,0,0,1,4.344,4.971,6.056,6.056,0,0,1-5.823,4.971Zm19.451,4.52h-4.867a.575.575,0,0,1-.6-.673l4.28-27.092a.841.841,0,0,1,.81-.673H749.6a.575.575,0,0,1,.6.673l-4.28,27.092A.84.84,0,0,1,745.109,171.13Z" transform="translate(-261.122 -20.528)" fill="#009de2" fill-rule="evenodd"/>
    <path id="Path_4804" data-name="Path 4804" d="M310.89,112.043h12.758c3.593,0,7.855.117,10.706,2.631a8.636,8.636,0,0,1,2.673,7.229c-.782,9.742-6.61,15.2-14.424,15.2h-6.292c-1.071,0-1.781.71-2.083,2.632l-1.756,11.17c-.114.725-.428,1.152-1,1.2h-7.859c-.872,0-1.182-.667-.954-2.112l5.659-35.831A2.26,2.26,0,0,1,310.89,112.043Z" transform="translate(0 0)" fill="#113984" fill-rule="evenodd"/>
    <path id="Path_4805" data-name="Path 4805" d="M338.533,160.3l2.228-14.1a1.949,1.949,0,0,1,2.219-1.828h12.745a12.452,12.452,0,0,1,5.151.936c-1.281,8.67-6.888,13.488-14.232,13.488h-6.292C339.523,158.794,338.9,159.217,338.533,160.3Z" transform="translate(-24.122 -21.693)" fill="#172c70" fill-rule="evenodd"/>
  </g>
</svg>
