<svg id="Group_1388" data-name="Group 1388" xmlns="http://www.w3.org/2000/svg" xmlns:xlink="http://www.w3.org/1999/xlink" width="326.192" height="242.448" viewBox="0 0 326.192 242.448">
  <defs>
    <linearGradient id="linear-gradient" x1="0.763" y1="-0.069" x2="0.697" y2="1.044" gradientUnits="objectBoundingBox">
      <stop offset="0" stop-color="#c5e9f9"/>
      <stop offset="1" stop-color="#f9fbfe"/>
    </linearGradient>
    <linearGradient id="linear-gradient-2" x1="0.497" y1="-1.377" x2="0.501" y2="1.219" gradientUnits="objectBoundingBox">
      <stop offset="0" stop-color="#e4f5fe"/>
      <stop offset="0.462" stop-color="#e2f3fc"/>
      <stop offset="0.64" stop-color="#dbeff9"/>
      <stop offset="0.77" stop-color="#cfe7f3"/>
      <stop offset="0.875" stop-color="#bddcea"/>
      <stop offset="0.965" stop-color="#a7cdde"/>
      <stop offset="1" stop-color="#9dc7d9"/>
    </linearGradient>
    <linearGradient id="linear-gradient-3" x1="0.507" y1="-0.326" x2="0.49" y2="0.554" gradientUnits="objectBoundingBox">
      <stop offset="0" stop-color="#caecfc"/>
      <stop offset="0.227" stop-color="#c6e9fa"/>
      <stop offset="0.409" stop-color="#bce1f5"/>
      <stop offset="0.576" stop-color="#abd5ec"/>
      <stop offset="0.733" stop-color="#94c2e0"/>
      <stop offset="0.882" stop-color="#75abd1"/>
      <stop offset="1" stop-color="#5895c2"/>
    </linearGradient>
    <linearGradient id="linear-gradient-4" x1="0.509" y1="-0.323" x2="0.487" y2="0.554" gradientUnits="objectBoundingBox">
      <stop offset="0" stop-color="#f6fcfe"/>
      <stop offset="0.222" stop-color="#f2f9fc"/>
      <stop offset="0.4" stop-color="#e8f2f7"/>
      <stop offset="0.563" stop-color="#d7e6ee"/>
      <stop offset="0.717" stop-color="#c0d4e2"/>
      <stop offset="0.864" stop-color="#a1bed3"/>
      <stop offset="1" stop-color="#7ea5c1"/>
    </linearGradient>
    <linearGradient id="linear-gradient-5" x1="0.5" y1="-0.045" x2="0.5" y2="0.955" xlink:href="#linear-gradient-2"/>
    <linearGradient id="linear-gradient-6" x1="-119.469" y1="0.5" x2="-118.469" y2="0.5" gradientUnits="objectBoundingBox">
      <stop offset="0" stop-color="#46bdd3"/>
      <stop offset="1" stop-color="#3c5fa9"/>
    </linearGradient>
    <linearGradient id="linear-gradient-7" x1="-130.595" y1="0.5" x2="-129.595" y2="0.5" xlink:href="#linear-gradient-6"/>
    <linearGradient id="linear-gradient-8" x1="-174.097" y1="0.5" x2="-173.097" y2="0.5" xlink:href="#linear-gradient-6"/>
    <linearGradient id="linear-gradient-9" x1="-149.973" y1="0.5" x2="-148.973" y2="0.5" xlink:href="#linear-gradient-6"/>
    <clipPath id="clip-path">
      <path id="Path_4528" data-name="Path 4528" d="M366,310.7a9.356,9.356,0,0,1-6.406,8.879c-.056.019-.113.037-.169.054A9.355,9.355,0,1,1,366,310.7Z" transform="translate(-347.297 -301.342)" fill="none"/>
    </clipPath>
  </defs>
  <path id="Path_4143" data-name="Path 4143" d="M182.017,326.752c-12.8.537-26.258-.265-37.253-6.838s-18.524-20.439-14.169-32.486c4.789-13.245,20.936-18.942,27.847-31.214,8.021-14.243,1.292-31.891-4.925-47.009s-11.416-33.812-1.29-46.644c10.11-12.812,29.632-12.122,45.509-8.348s33.057,9.335,47.894,2.539c9.88-4.525,16.635-13.723,23.391-22.236,9.1-11.467,19.253-22.548,32.186-29.4s29.183-8.89,42.154-2.1c10.49,5.488,17.435,15.743,25.216,24.666,18.436,21.138,44.867,37.944,72.8,41.789,29.038,4.006,6.051,42.638-4.189,53.01-6.1,6.176-13.492,10.937-19.714,16.988s-11.409,14.006-11.194,22.682c.306,12.391,10.965,21.573,19.676,30.39s16.572,22.142,10.454,32.921c-4.872,8.585-16.068,10.765-25.881,11.836a678.522,678.522,0,0,1-122.814,2.187c-19.473-1.419-41.116-2-60-7.288-5.627-1.576-10.579-4.844-16.316-6.025C202.013,324.234,191.491,326.355,182.017,326.752Z" transform="translate(-129.341 -98.828)" fill="url(#linear-gradient)"/>
  <g id="Group_1301" data-name="Group 1301" transform="translate(35.507 52.058)">
    <path id="Path_4395" data-name="Path 4395" d="M200.659,402.343l180.884,9.912s23.131,8.914,13.7,18.331-45.449,3.708-66.662,17.48c-20.491,13.3-19.989-13.708-49.513-14.831s-116.8,1.084-117.611-7.156S190.844,402.534,200.659,402.343Z" transform="translate(-161.446 -276.545)" fill="url(#linear-gradient-2)"/>
    <path id="Path_4396" data-name="Path 4396" d="M295.927,408.931c0,2.271-16.1,4.113-35.952,4.113s-35.952-1.841-35.952-4.113,16.1-4.112,35.952-4.112S295.927,406.66,295.927,408.931Z" transform="translate(-191.675 -277.741)" fill="#e0e1e3"/>
    <path id="Path_4397" data-name="Path 4397" d="M512.771,445.044c0,3.206-18.881,5.8-42.173,5.8s-42.172-2.6-42.172-5.8,18.881-5.8,42.172-5.8S512.771,441.838,512.771,445.044Z" transform="translate(-290.418 -294.369)" fill="#e0e1e3"/>
    <path id="Path_4398" data-name="Path 4398" d="M321.706,451.6c0,1.479-8.714,2.679-19.464,2.679s-19.464-1.2-19.464-2.679,8.714-2.679,19.464-2.679S321.706,450.115,321.706,451.6Z" transform="translate(-220.059 -299.043)" fill="#e0e1e3"/>
    <path id="Path_4399" data-name="Path 4399" d="M232.854,446.558c0,1.046-6.163,1.9-13.766,1.9s-13.765-.849-13.765-1.9,6.163-1.895,13.765-1.895S232.854,445.511,232.854,446.558Z" transform="translate(-182.642 -296.989)" fill="#e0e1e3"/>
    <g id="Group_1136" data-name="Group 1136" transform="translate(87.348 0)">
      <path id="Path_4400" data-name="Path 4400" d="M463.127,215.479v.006a1.36,1.36,0,0,0-.159-.006Z" transform="translate(-394.452 -186.275)" fill="#0052a1"/>
      <path id="Path_4401" data-name="Path 4401" d="M502.47,158.985a3.815,3.815,0,0,0-3.812,3.812v57.294a8.9,8.9,0,0,1-8.895,8.895H439.571V164.7a5.719,5.719,0,0,1,5.718-5.718Z" transform="translate(-383.15 -158.984)" fill="url(#linear-gradient-3)"/>
      <path id="Path_4402" data-name="Path 4402" d="M453.351,187.21a3.815,3.815,0,0,0-3.812,3.812v74.608a8.9,8.9,0,0,1-8.895,8.895H390.452v-81.6a5.718,5.718,0,0,1,5.718-5.718Z" transform="translate(-359.422 -172.619)" fill="url(#linear-gradient-4)"/>
      <path id="Path_4403" data-name="Path 4403" d="M404.188,215.479c-.089,0-.178.006-.261.012a3.812,3.812,0,0,0-3.552,3.8V320.31a8.9,8.9,0,0,1-8.895,8.895H341.289V221.2a5.718,5.718,0,0,1,5.718-5.718Z" transform="translate(-335.672 -186.275)" fill="url(#linear-gradient-5)"/>
      <path id="Path_4404" data-name="Path 4404" d="M376.849,420.735H330.423a8.89,8.89,0,0,0,8.793,7.624h46.7A9.2,9.2,0,0,1,376.849,420.735Z" transform="translate(-330.423 -285.43)" fill="#443b8f"/>
      <path id="Path_4405" data-name="Path 4405" d="M463.229,280.556h-.012V220.377a5.632,5.632,0,0,0-1.118-3.463,3.483,3.483,0,0,0-2.058-1.359,2.307,2.307,0,0,0-.477-.07,1.36,1.36,0,0,0-.159-.006,1.791,1.791,0,0,0-.26.012,3.812,3.812,0,0,0-3.552,3.8V288.18h16.7A9.2,9.2,0,0,1,463.229,280.556Z" transform="translate(-390.89 -186.275)" fill="#0052a1"/>
      <path id="Path_4406" data-name="Path 4406" d="M512.349,235.018h-.011V192.152a5.634,5.634,0,0,0-1.118-3.463,3.485,3.485,0,0,0-2.059-1.359,2.306,2.306,0,0,0-.476-.07,1.361,1.361,0,0,0-.159-.006,1.789,1.789,0,0,0-.26.012,3.812,3.812,0,0,0-3.551,3.8v51.576h16.7A9.2,9.2,0,0,1,512.349,235.018Z" transform="translate(-414.618 -172.641)" fill="#0052a1"/>
      <path id="Path_4407" data-name="Path 4407" d="M561.456,186.678v-22.8a5.631,5.631,0,0,0-1.118-3.463,3.484,3.484,0,0,0-2.058-1.359,2.306,2.306,0,0,0-.477-.07,1.361,1.361,0,0,0-.159-.006,1.791,1.791,0,0,0-.26.012,3.812,3.812,0,0,0-3.551,3.8v23.882Z" transform="translate(-438.347 -158.984)" fill="#0052a1"/>
    </g>
    <g id="Group_1137" data-name="Group 1137" transform="translate(96.753 110.684)">
      <path id="Path_4408" data-name="Path 4408" d="M370.268,393.659a9.185,9.185,0,0,1-5.534,1.827,8.811,8.811,0,0,1-2.077-.243c1.4-.494,1.583-1.763,1.34-3.366-.135-1.006-.462-2.142-.75-3.321a2.655,2.655,0,0,0,2.481.064,3.915,3.915,0,0,1-2.853-1.705c-.487-2.469-.487-4.867,1.789-6.233.045,1.385,1.359,2.065,2.411,2.373a6.918,6.918,0,0,0,1.289.269,1.517,1.517,0,0,1,.237,2.129,10.221,10.221,0,0,0-1.238,1.487,4.966,4.966,0,0,0-.6,1.789,4.665,4.665,0,0,0,.622,3.148,1.878,1.878,0,0,0,.372.4A10.3,10.3,0,0,0,370.268,393.659Z" transform="translate(-355.379 -376.765)" fill="#fff"/>
      <path id="Path_4409" data-name="Path 4409" d="M367.327,382.459a9.347,9.347,0,0,1-2.731,6.617c-.07.077-.147.141-.218.211a2.985,2.985,0,0,1-.34.289,1.119,1.119,0,0,1-.166.141.075.075,0,0,1-.039.038c-.1.083-.211.166-.327.243a10.3,10.3,0,0,1-2.514-1.379,1.879,1.879,0,0,1-.372-.4,4.666,4.666,0,0,1-.622-3.148,4.968,4.968,0,0,1,.6-1.789,10.22,10.22,0,0,1,1.238-1.487,1.517,1.517,0,0,0-.237-2.129,6.919,6.919,0,0,1-1.289-.269c-1.051-.308-2.366-.988-2.411-2.373-2.276,1.366-2.276,3.764-1.789,6.233a3.915,3.915,0,0,0,2.853,1.705,2.655,2.655,0,0,1-2.481-.064c.288,1.18.615,2.315.75,3.321.243,1.6.058,2.873-1.34,3.366a9.128,9.128,0,0,1-1.315-.391,10.262,10.262,0,0,1-1.282-.635,2.2,2.2,0,0,1-.269-.147,9.707,9.707,0,0,1-1.616-1.276c-.064-.064-.128-.135-.186-.2a9.262,9.262,0,0,1-2.61-6.475,9.355,9.355,0,1,1,18.71,0Z" transform="translate(-348.617 -373.104)" fill="#a7d0e5"/>
      <path id="Path_4410" data-name="Path 4410" d="M365.97,394.444a2.655,2.655,0,0,1-2.481-.064v-.006h-.007c-.07-.269-.134-.539-.192-.815s-.122-.551-.173-.82A3.915,3.915,0,0,0,365.97,394.444Z" transform="translate(-355.622 -382.589)" fill="#443b8f"/>
      <path id="Path_4411" data-name="Path 4411" d="M368.244,403.843c-.009.019-.028.028-.037.037-.1.084-.214.167-.326.242a9.171,9.171,0,0,1-5.534,1.826,10.005,10.005,0,0,1-3.392-.634,10.3,10.3,0,0,1-1.286-.633l3.5-2.339h4.658Z" transform="translate(-352.99 -387.229)" fill="#443b8f"/>
      <path id="Path_4412" data-name="Path 4412" d="M367.034,389.549c-.07.077-.147.141-.218.211a2.986,2.986,0,0,1-.34.289,1.117,1.117,0,0,1-.166.141.075.075,0,0,1-.039.038c-.1.083-.211.166-.327.243a10.3,10.3,0,0,1-2.514-1.379,1.881,1.881,0,0,1-.372-.4,4.666,4.666,0,0,1-.622-3.148,4.968,4.968,0,0,1,.6-1.789,10.222,10.222,0,0,1,1.238-1.487,1.517,1.517,0,0,0-.237-2.129,6.917,6.917,0,0,1-1.289-.269c-1.051-.308-2.366-.988-2.411-2.373-2.276,1.366-2.276,3.764-1.789,6.233.051.269.109.545.173.82s.128.539.2.808v.013c.288,1.18.615,2.315.75,3.321.243,1.6.058,2.873-1.34,3.366a9.134,9.134,0,0,1-1.315-.391,10.268,10.268,0,0,1-1.283-.635,2.206,2.206,0,0,1-.269-.147,9.71,9.71,0,0,1-1.616-1.276c-.064-.064-.128-.135-.186-.2a15.57,15.57,0,0,0,.833-8.374c-.942-5.187,3.4-6.989,5.841-6.944C367.708,373.8,367.092,384.824,367.034,389.549Z" transform="translate(-351.056 -373.578)" fill="#0073b3"/>
    </g>
    <path id="Path_4413" data-name="Path 4413" d="M366,310.7a9.356,9.356,0,0,1-6.406,8.879c-.056.019-.113.037-.169.054A9.355,9.355,0,1,1,366,310.7Z" transform="translate(-251.226 -227.754)" fill="#a7d0e5"/>
    <g id="Group_1147" data-name="Group 1147" transform="translate(96.561 36.486)">
      <path id="Path_4414" data-name="Path 4414" d="M366.953,238.92a9.353,9.353,0,1,1-9.353-9.354A9.354,9.354,0,0,1,366.953,238.92Z" transform="translate(-348.246 -229.566)" fill="#a7d0e5"/>
      <g id="Group_1146" data-name="Group 1146" transform="translate(1.951 4.104)">
        <g id="Group_1138" data-name="Group 1138" transform="translate(1.309 8.236)">
          <path id="Path_4415" data-name="Path 4415" d="M366.739,255.613l-.69,2.476a9.3,9.3,0,0,1-4.254,1.647c-.277.034-.558.056-.842.065-.1,0-.2,0-.307,0q-.454,0-.9-.042a9.1,9.1,0,0,1-.973-.145,9.311,9.311,0,0,1-3.824-1.745c-.132-.819-.274-1.724-.4-2.572.688-.256,2.876-1,4.256-1.467l.057-.019.09-.03.234-.079.215-.073.554-.186h0l.028-.009h.016l1.857.139.311.023.1.007.042.01c.112.028.437.114.868.246h0A9.114,9.114,0,0,1,366.739,255.613Z" transform="translate(-354.554 -253.437)" fill="#fff"/>
        </g>
        <g id="Group_1139" data-name="Group 1139" transform="translate(5.189 0.581)">
          <path id="Path_4416" data-name="Path 4416" d="M364.759,238.654s2.227.376,1.85,3.862-2.343,3.179-2.475,3.174-1.977.042-2.074-4.221C362.059,241.469,362.031,238.317,364.759,238.654Z" transform="translate(-362.059 -238.628)" fill="#fff"/>
        </g>
        <g id="Group_1140" data-name="Group 1140" transform="translate(5.94 6.228)">
          <path id="Path_4417" data-name="Path 4417" d="M366.437,249.956a8.033,8.033,0,0,0,.059,1.747c.135.312-1.788,1.3-2.984.175a12.293,12.293,0,0,0,.166-2.122C363.6,249.2,366.437,249.956,366.437,249.956Z" transform="translate(-363.512 -249.553)" fill="#fff"/>
        </g>
        <g id="Group_1141" data-name="Group 1141" transform="translate(9.638 3.37)">
          <path id="Path_4418" data-name="Path 4418" d="M370.811,244.137s.247-.258.334.007-.395,1.44-.364,1.493c0,0-.046.1-.1.045A12.805,12.805,0,0,1,370.811,244.137Z" transform="translate(-370.666 -244.024)" fill="#0073b3"/>
        </g>
        <g id="Group_1142" data-name="Group 1142" transform="translate(4.864 3.267)">
          <path id="Path_4419" data-name="Path 4419" d="M361.781,243.947s-.236-.268-.333-.007a4.488,4.488,0,0,0,.3,1.507s.077.12.137.066A12.831,12.831,0,0,0,361.781,243.947Z" transform="translate(-361.43 -243.825)" fill="#0073b3"/>
        </g>
        <g id="Group_1143" data-name="Group 1143" transform="translate(5.033)">
          <path id="Path_4420" data-name="Path 4420" d="M366.65,240.691c-.076.477-.149.831-.149.831l-.324.423a8.517,8.517,0,0,0-.03-1.083,2.624,2.624,0,0,1-.064-.261c-.038-.177-.075-.375-.1-.442a4.771,4.771,0,0,0-3.572.114s.014.144.013.3c0,.187-.021.4-.107.428-.159.058-.093,1.1-.093,1.1l-.259-.3s-.075-.542-.148-1.164v0c-.017-.145-.034-.295-.05-.442a2.913,2.913,0,0,1,.841-2.432,4.015,4.015,0,0,1,2.894.012,1.014,1.014,0,0,1,.43.113A4.135,4.135,0,0,1,366.65,240.691Z" transform="translate(-361.757 -237.505)" fill="#0073b3"/>
        </g>
        <path id="Path_4421" data-name="Path 4421" d="M364.13,251.387a1.419,1.419,0,0,0,1.181.475,1.608,1.608,0,0,0,1.184-.449,1.441,1.441,0,0,1-1.188.809A1.457,1.457,0,0,1,364.13,251.387Z" transform="translate(-357.871 -244.211)" fill="#e2dbd7"/>
        <path id="Path_4422" data-name="Path 4422" d="M363.073,253.715a2.426,2.426,0,0,0,1.729,1.137c.719.062,1.34-.848,1.632-1.3A4.35,4.35,0,0,0,363.073,253.715Z" transform="translate(-357.36 -245.132)" fill="#fff"/>
        <path id="Path_4423" data-name="Path 4423" d="M367.843,253.167a6.183,6.183,0,0,1-1.425,1.235l.6.929,1.029-1.836Z" transform="translate(-358.976 -245.071)" fill="#0073b3"/>
        <path id="Path_4424" data-name="Path 4424" d="M363.261,253.436a4.138,4.138,0,0,0,1.457,1.1l-.662.957-1.157-1.674Z" transform="translate(-357.276 -245.201)" fill="#0073b3"/>
        <path id="Path_4425" data-name="Path 4425" d="M365.922,255.556l.517.787a1.077,1.077,0,0,1-1.047-.02Z" transform="translate(-358.48 -246.225)" fill="#443b8f"/>
        <path id="Path_4426" data-name="Path 4426" d="M374.1,255.643c-.089.32-.222.785-.574,2.063-.107.093-.217.184-.329.27s-.254.2-.385.289a9.3,9.3,0,0,1-4.254,1.647c.139-3.238.523-6.109.523-6.109q.454.119.863.237h0a19.82,19.82,0,0,1,3.988,1.506l.009,0C374.054,255.611,374.1,255.643,374.1,255.643Z" transform="translate(-360.012 -245.378)" fill="#443b8f"/>
        <path id="Path_4427" data-name="Path 4427" d="M357.847,259.987a9.311,9.311,0,0,1-3.824-1.745,9.443,9.443,0,0,1-.944-.832c-.057-.058-.114-.117-.17-.176-.164-.7-.273-1.149-.28-1.179h0a21.172,21.172,0,0,1,5.251-1.853v0C357.88,254.3,357.883,256.925,357.847,259.987Z" transform="translate(-352.315 -245.571)" fill="#443b8f"/>
        <path id="Path_4428" data-name="Path 4428" d="M365.839,256.978c-.038.852-.042,2.507-.029,4.395-.1,0-.2,0-.307,0q-.454,0-.9-.042a28.637,28.637,0,0,1,.621-4.36c.045-.189.073-.283.073-.283l.549.09C365.845,256.843,365.842,256.908,365.839,256.978Z" transform="translate(-358.1 -246.774)" fill="#443b8f"/>
        <g id="Group_1144" data-name="Group 1144" transform="translate(13.19 10.265)">
          <path id="Path_4429" data-name="Path 4429" d="M378.911,258.365a9.465,9.465,0,0,1-1.045,1.06c-.107.093-.217.184-.329.27l.9-2.333A3.189,3.189,0,0,1,378.911,258.365Z" transform="translate(-377.537 -257.363)" fill="#443b8f"/>
        </g>
        <g id="Group_1145" data-name="Group 1145" transform="translate(0 10.484)">
          <path id="Path_4430" data-name="Path 4430" d="M352.785,259.143c-.057-.058-.114-.117-.17-.176a9.047,9.047,0,0,1-.594-.695,1.082,1.082,0,0,1,.314-.485h0Z" transform="translate(-352.021 -257.787)" fill="#443b8f"/>
        </g>
      </g>
    </g>
    <g id="Group_1148" data-name="Group 1148" transform="translate(120.079 39.798)">
      <path id="Path_4431" data-name="Path 4431" d="M404.839,235.975h-10.87c-.126,0-.228.284-.228.635h0c0,.351.1.635.228.635h10.87c.125,0,.228-.286.228-.635S404.964,235.975,404.839,235.975Z" transform="translate(-393.741 -235.975)" fill="#0db0ea"/>
      <path id="Path_4432" data-name="Path 4432" d="M404.839,241.066h-10.87c-.126,0-.228.284-.228.635h0c0,.351.1.635.228.635h10.87c.125,0,.228-.286.228-.635S404.964,241.066,404.839,241.066Z" transform="translate(-393.741 -238.434)" fill="#0db0ea"/>
      <path id="Path_4433" data-name="Path 4433" d="M414.022,246.158H394.157c-.23,0-.416.284-.416.635h0c0,.351.186.635.416.635h19.865c.229,0,.417-.286.417-.635S414.251,246.158,414.022,246.158Z" transform="translate(-393.741 -240.894)" fill="#0db0ea"/>
      <path id="Path_4434" data-name="Path 4434" d="M414.022,251.249H394.157c-.23,0-.416.285-.416.635h0c0,.351.186.635.416.635h19.865c.229,0,.417-.286.417-.635S414.251,251.249,414.022,251.249Z" transform="translate(-393.741 -243.354)" fill="#0db0ea"/>
    </g>
    <g id="Group_1151" data-name="Group 1151" transform="translate(96.561 63.506)">
      <rect id="Rectangle_702" data-name="Rectangle 702" width="52.178" height="1.271" rx="0.635" transform="translate(0 2.95)" fill="#0db0ea"/>
      <g id="Group_1149" data-name="Group 1149" transform="translate(0 0)">
        <path id="Path_4435" data-name="Path 4435" d="M366.463,281.837H348.881a.636.636,0,0,0,0,1.271h17.582Z" transform="translate(-348.246 -281.837)" fill="#0db0ea"/>
        <path id="Path_4436" data-name="Path 4436" d="M419.039,281.837H388.1v1.271h30.943a.636.636,0,0,0,0-1.271Z" transform="translate(-367.497 -281.837)" fill="#0db0ea"/>
      </g>
      <g id="Group_1150" data-name="Group 1150" transform="translate(0 5.9)">
        <path id="Path_4437" data-name="Path 4437" d="M376.061,293.25h-27.18a.635.635,0,0,0,0,1.271h27.18Z" transform="translate(-348.246 -293.25)" fill="#0db0ea"/>
        <path id="Path_4438" data-name="Path 4438" d="M428.009,293.25H406.664v1.271h21.345a.635.635,0,0,0,0-1.271Z" transform="translate(-376.466 -293.25)" fill="#0db0ea"/>
      </g>
    </g>
    <path id="Path_4439" data-name="Path 4439" d="M352.04,271.39l.369,1.134H353.6l-.965.7L353,274.36l-.965-.7-.965.7.369-1.134-.965-.7h1.193Z" transform="translate(-252.763 -213.285)" fill="#0052a1"/>
    <path id="Path_4440" data-name="Path 4440" d="M360.6,271.39l.369,1.134h1.193l-.965.7.369,1.134-.965-.7-.965.7.369-1.134-.965-.7h1.193Z" transform="translate(-256.898 -213.285)" fill="#0052a1"/>
    <path id="Path_4441" data-name="Path 4441" d="M369.159,271.39l.369,1.134h1.193l-.965.7.369,1.134-.965-.7-.965.7.369-1.134-.965-.7h1.193Z" transform="translate(-261.033 -213.285)" fill="#0db0ea"/>
    <path id="Path_4442" data-name="Path 4442" d="M377.718,271.39l.369,1.134h1.193l-.965.7.369,1.134-.965-.7-.965.7.369-1.134-.965-.7h1.193Z" transform="translate(-265.168 -213.285)" fill="#0db0ea"/>
    <path id="Path_4443" data-name="Path 4443" d="M386.278,271.39l.369,1.134h1.193l-.965.7.369,1.134-.965-.7-.965.7.369-1.134-.965-.7h1.193Z" transform="translate(-269.303 -213.285)" fill="#0db0ea"/>
    <g id="Group_1152" data-name="Group 1152" transform="translate(120.079 76.857)">
      <path id="Path_4444" data-name="Path 4444" d="M404.839,307.665h-10.87c-.126,0-.228.285-.228.635h0c0,.351.1.635.228.635h10.87c.125,0,.228-.286.228-.635S404.964,307.665,404.839,307.665Z" transform="translate(-393.741 -307.665)" fill="#0db0ea"/>
      <path id="Path_4445" data-name="Path 4445" d="M404.839,312.757h-10.87c-.126,0-.228.284-.228.635h0c0,.351.1.635.228.635h10.87c.125,0,.228-.286.228-.635S404.964,312.757,404.839,312.757Z" transform="translate(-393.741 -310.125)" fill="#0db0ea"/>
      <path id="Path_4446" data-name="Path 4446" d="M414.022,317.848H394.157c-.23,0-.416.285-.416.635h0c0,.351.186.636.416.636h19.865c.229,0,.417-.286.417-.636S414.251,317.848,414.022,317.848Z" transform="translate(-393.741 -312.584)" fill="#0db0ea"/>
      <path id="Path_4447" data-name="Path 4447" d="M414.022,322.94H394.157c-.23,0-.416.284-.416.635h0c0,.351.186.635.416.635h19.865c.229,0,.417-.286.417-.635S414.251,322.94,414.022,322.94Z" transform="translate(-393.741 -315.044)" fill="#0db0ea"/>
    </g>
    <g id="Group_1155" data-name="Group 1155" transform="translate(96.561 100.564)">
      <rect id="Rectangle_703" data-name="Rectangle 703" width="52.178" height="1.271" rx="0.635" transform="translate(0 2.95)" fill="#0db0ea"/>
      <g id="Group_1153" data-name="Group 1153" transform="translate(0 0)">
        <path id="Path_4448" data-name="Path 4448" d="M366.463,353.528H348.881a.635.635,0,1,0,0,1.271h17.582Z" transform="translate(-348.246 -353.528)" fill="#0db0ea"/>
        <path id="Path_4449" data-name="Path 4449" d="M419.039,353.528H388.1V354.8h30.943a.635.635,0,0,0,0-1.271Z" transform="translate(-367.497 -353.528)" fill="#0db0ea"/>
      </g>
      <g id="Group_1154" data-name="Group 1154" transform="translate(0 5.9)">
        <path id="Path_4450" data-name="Path 4450" d="M376.061,364.941h-27.18a.635.635,0,1,0,0,1.271h27.18Z" transform="translate(-348.246 -364.941)" fill="#0db0ea"/>
        <path id="Path_4451" data-name="Path 4451" d="M428.009,364.941H406.664v1.271h21.345a.635.635,0,0,0,0-1.271Z" transform="translate(-376.466 -364.941)" fill="#0db0ea"/>
      </g>
    </g>
    <path id="Path_4452" data-name="Path 4452" d="M352.04,343.081l.369,1.134H353.6l-.965.7L353,346.05l-.965-.7-.965.7.369-1.134-.965-.7h1.193Z" transform="translate(-252.763 -247.917)" fill="#0052a1"/>
    <path id="Path_4453" data-name="Path 4453" d="M360.6,343.081l.369,1.134h1.193l-.965.7.369,1.134-.965-.7-.965.7.369-1.134-.965-.7h1.193Z" transform="translate(-256.898 -247.917)" fill="#0052a1"/>
    <path id="Path_4454" data-name="Path 4454" d="M369.159,343.081l.369,1.134h1.193l-.965.7.369,1.134-.965-.7-.965.7.369-1.134-.965-.7h1.193Z" transform="translate(-261.033 -247.917)" fill="#0052a1"/>
    <path id="Path_4455" data-name="Path 4455" d="M377.718,343.081l.369,1.134h1.193l-.965.7.369,1.134-.965-.7-.965.7.369-1.134-.965-.7h1.193Z" transform="translate(-265.168 -247.917)" fill="#0052a1"/>
    <path id="Path_4456" data-name="Path 4456" d="M386.278,343.081l.369,1.134h1.193l-.965.7.369,1.134-.965-.7-.965.7.369-1.134-.965-.7h1.193Z" transform="translate(-269.303 -247.917)" fill="#0db0ea"/>
    <g id="Group_1156" data-name="Group 1156" transform="translate(120.079 112.162)">
      <path id="Path_4457" data-name="Path 4457" d="M404.839,375.964h-10.87c-.126,0-.228.284-.228.635h0c0,.35.1.635.228.635h10.87c.125,0,.228-.286.228-.635S404.964,375.964,404.839,375.964Z" transform="translate(-393.741 -375.964)" fill="#0db0ea"/>
      <path id="Path_4458" data-name="Path 4458" d="M404.839,381.055h-10.87c-.126,0-.228.284-.228.635h0c0,.351.1.635.228.635h10.87c.125,0,.228-.286.228-.635S404.964,381.055,404.839,381.055Z" transform="translate(-393.741 -378.423)" fill="#0db0ea"/>
      <path id="Path_4459" data-name="Path 4459" d="M414.022,386.147H394.157c-.23,0-.416.284-.416.635h0c0,.35.186.635.416.635h19.865c.229,0,.417-.286.417-.635S414.251,386.147,414.022,386.147Z" transform="translate(-393.741 -380.883)" fill="#0db0ea"/>
      <path id="Path_4460" data-name="Path 4460" d="M414.022,391.238H394.157c-.23,0-.416.284-.416.635h0c0,.351.186.635.416.635h19.865c.229,0,.417-.286.417-.635S414.251,391.238,414.022,391.238Z" transform="translate(-393.741 -383.342)" fill="#0db0ea"/>
    </g>
    <g id="Group_1157" data-name="Group 1157" transform="translate(97.716 130.469)">
      <path id="Path_4461" data-name="Path 4461" d="M352.04,411.379l.369,1.134H353.6l-.965.7.369,1.134-.965-.7-.965.7.369-1.134-.965-.7h1.193Z" transform="translate(-350.479 -411.379)" fill="#0052a1"/>
      <path id="Path_4462" data-name="Path 4462" d="M360.6,411.379l.369,1.134h1.193l-.965.7.369,1.134-.965-.7-.965.7.369-1.134-.965-.7h1.193Z" transform="translate(-354.614 -411.379)" fill="#0052a1"/>
      <path id="Path_4463" data-name="Path 4463" d="M369.159,411.379l.369,1.134h1.193l-.965.7.369,1.134-.965-.7-.965.7.369-1.134-.965-.7h1.193Z" transform="translate(-358.749 -411.379)" fill="#0052a1"/>
      <path id="Path_4464" data-name="Path 4464" d="M377.718,411.379l.369,1.134h1.193l-.965.7.369,1.134-.965-.7-.965.7.369-1.134-.965-.7h1.193Z" transform="translate(-362.884 -411.379)" fill="#0052a1"/>
      <path id="Path_4465" data-name="Path 4465" d="M386.278,411.379l.369,1.134h1.193l-.965.7.369,1.134-.965-.7-.965.7.369-1.134-.965-.7h1.193Z" transform="translate(-367.018 -411.379)" fill="#0052a1"/>
    </g>
    <g id="Group_1160" data-name="Group 1160" transform="translate(117.231 55.413)">
      <g id="Group_1158" data-name="Group 1158" transform="translate(0.396 0)">
        <path id="Path_4466" data-name="Path 4466" d="M413.424,271.808a13.448,13.448,0,1,0,.083,15.581A13.491,13.491,0,0,0,413.424,271.808Zm-2.511,13.762a10.309,10.309,0,1,1-.065-11.918A10.316,10.316,0,0,1,410.913,285.569Z" transform="translate(-388.998 -266.181)" fill="#0052a1"/>
        <path id="Path_4467" data-name="Path 4467" d="M445.007,329.6l-15.135-20.546c.069-.146.134-.294.193-.444a6.76,6.76,0,0,0-.788-6.408l-.019-.026a20.476,20.476,0,0,1-10.947,7.837l.019.026a6.759,6.759,0,0,0,5.812,2.812c.2-.009.4-.03.6-.058l15.133,20.543a1.81,1.81,0,0,0,2.51.4l2.22-1.589A1.81,1.81,0,0,0,445.007,329.6Z" transform="translate(-403.158 -283.57)" fill="#0052a1"/>
      </g>
      <g id="Group_1159" data-name="Group 1159" transform="translate(0 2.268)" opacity="0.35">
        <path id="Path_4468" data-name="Path 4468" d="M412.657,276.195a13.449,13.449,0,1,0,.083,15.581A13.49,13.49,0,0,0,412.657,276.195Zm-2.511,13.762a10.309,10.309,0,1,1-.065-11.918A10.317,10.317,0,0,1,410.146,289.956Z" transform="translate(-388.231 -270.568)" fill="#0052a1"/>
        <path id="Path_4469" data-name="Path 4469" d="M444.239,333.989,429.1,313.443q.1-.219.193-.444a6.76,6.76,0,0,0-.788-6.408l-.019-.026a20.478,20.478,0,0,1-10.947,7.837l.019.026a6.759,6.759,0,0,0,5.812,2.812c.2-.009.4-.03.6-.057l15.133,20.542a1.809,1.809,0,0,0,2.51.4l2.22-1.589A1.809,1.809,0,0,0,444.239,333.989Z" transform="translate(-402.391 -287.957)" fill="#0052a1"/>
      </g>
    </g>
    <g id="Group_1164" data-name="Group 1164" transform="translate(141.807 80.943)">
      <g id="Group_1162" data-name="Group 1162" transform="translate(18.779 47.856)">
        <g id="Group_1161" data-name="Group 1161" transform="translate(11.481)">
          <path id="Path_4470" data-name="Path 4470" d="M497.465,408.148l.274,7.2a7.34,7.34,0,0,1,3.53,1.474c1.748,1.337,3.256,4.25,8.5,4.97l2.571,3.085s.822,2.056.343,1.851c-.433-.186-14.1-7.573-17.061-9.415a1.3,1.3,0,0,1-.608-1l-.7-8.16Z" transform="translate(-494.312 -408.148)" fill="#fcbb9a"/>
          <path id="Path_4471" data-name="Path 4471" d="M494.852,409.587h-.416l.637,7.416a1.3,1.3,0,0,0,.608,1c2.962,1.842,16.628,9.23,17.061,9.415,0,0-16.7-9.972-16.882-10.2S494.852,409.587,494.852,409.587Z" transform="translate(-494.372 -408.843)" fill="#dfa087"/>
        </g>
        <path id="Path_4472" data-name="Path 4472" d="M482.892,409.164a58.68,58.68,0,0,1-1.154,7.563,92.443,92.443,0,0,1,.034,12.886l-.034,1.114v.622h-2.593l-.274-22.186Z" transform="translate(-475.372 -408.639)" fill="#fcbb9a"/>
        <path id="Path_4473" data-name="Path 4473" d="M479.134,430.5l.43.039.009-9.78.278-9.735-.968-.82Z" transform="translate(-475.378 -409.142)" fill="#dfa087"/>
        <path id="Path_4474" data-name="Path 4474" d="M475.847,449.01l-3.617,3.174a.373.373,0,0,0,.247.654h5.449a1.147,1.147,0,0,0,1.144-1.233l-.106-1.417a.813.813,0,0,0-.96-.743A2.6,2.6,0,0,1,475.847,449.01Z" transform="translate(-472.102 -427.887)" fill="#1f6ab4"/>
      </g>
      <path id="Path_4475" data-name="Path 4475" d="M457.863,333.932l-10.151-8.9,6.351,8.622,2.749,3.016,5.712.868v-2.7Z" transform="translate(-441.541 -320.143)" fill="#fdbb96"/>
      <path id="Path_4476" data-name="Path 4476" d="M457.809,341.214l-13.663.365-7.86-10.739-.159.3a2.945,2.945,0,0,0,.079,2.929l6.113,10.028H459.18Z" transform="translate(-435.774 -322.947)" fill="#fdbb96"/>
      <path id="Path_4477" data-name="Path 4477" d="M470.638,350.962l.181,2.693a.434.434,0,0,0,.461.4l5.118-.322-.959-3.084-4.351-.154A.435.435,0,0,0,470.638,350.962Z" transform="translate(-452.616 -332.443)" fill="#0073b3"/>
      <g id="Group_1163" data-name="Group 1163" transform="translate(19.446)">
        <path id="Path_4478" data-name="Path 4478" d="M485.354,344.764s6.238,3.016,1.371,8.979l2.987,23.456a1.138,1.138,0,0,1-.982,1.278,95.766,95.766,0,0,1-12.857.925,1.14,1.14,0,0,1-1.1-1.146v-28.42Z" transform="translate(-474.061 -329.673)" fill="#0073b3"/>
        <path id="Path_4479" data-name="Path 4479" d="M481.377,315.812a3.216,3.216,0,0,0-1.265-.241c-2.422.052-4.787,2.916-5.621,4.947a17.949,17.949,0,0,0-.639,10.308c.469,2.221,1.652,6.222,4.46,6.438-.7-.054.713-3.042.874-3.348,1.356-2.584,4.15-3.966,5.213-6.754a11.1,11.1,0,0,0-.127-8.435A5.959,5.959,0,0,0,481.377,315.812Z" transform="translate(-473.392 -315.57)" fill="#0052a1"/>
        <path id="Path_4480" data-name="Path 4480" d="M499.6,377.2l-2.987-23.456c4.867-5.964-1.371-8.979-1.371-8.979A7.053,7.053,0,0,1,496,353.55s1.261,21.067,2.618,24.928A1.138,1.138,0,0,0,499.6,377.2Z" transform="translate(-483.946 -329.673)" fill="#00488f"/>
        <path id="Path_4481" data-name="Path 4481" d="M486.428,316.645l0,.026a6.269,6.269,0,0,1,2.285,2.576,11.1,11.1,0,0,1,.127,8.435c-1.063,2.787-3.857,4.17-5.213,6.754a13.311,13.311,0,0,0-1.038,2.768l.164.58c1.424-3.17,3.326-4.309,4.59-4.715a3.882,3.882,0,0,0,2.29-1.83C494.917,321.21,486.428,316.645,486.428,316.645Z" transform="translate(-477.836 -316.089)" fill="#00488f"/>
      </g>
    </g>
    <g id="Group_1165" data-name="Group 1165" transform="translate(185.155 80.943)">
      <path id="Path_4482" data-name="Path 4482" d="M528.989,367.919c-.894-1.753-4.662-5.1-5.631-6.844-1.686-3.038-.54-6.379,2.765-7.433a4.8,4.8,0,0,1,1.679-.1c.11,0,.219,0,.329,0a8.134,8.134,0,0,0-1.842-2.224c-1.921-1.746-4.448-2.722-5.86-4.978a4.779,4.779,0,0,1,.931-6.2,4.367,4.367,0,0,1,3.24-.617,9.643,9.643,0,0,1,1.751.656c-.373-.453-.818-.874-1.073-1.172a43.181,43.181,0,0,0-3.369-2.874,7.68,7.68,0,0,1-2.027-3.071,4.43,4.43,0,0,1,.262-3.552,4.668,4.668,0,0,1,7.406-.78,71.072,71.072,0,0,1-3.758-7.3c-.884-3.1,2.186-6.1,5.154-5.849,4.8.366,5.721,6.284,5.491,10.663,3.512-1.454,6.649,1.191,6.41,4.864-.247,2.968-2.908,4.693-4.348,6.891-.193.341-.549.84-.828,1.356a9.653,9.653,0,0,1,1.593-.98,4.368,4.368,0,0,1,3.3-.015,4.78,4.78,0,0,1,2.1,5.9c-.953,2.484-3.247,3.927-4.8,6.008a8.152,8.152,0,0,0-1.382,2.536c.108-.02.216-.039.322-.065a4.8,4.8,0,0,1,1.668-.22c3.446.4,5.21,3.461,4.138,6.766-.616,1.9-3.549,5.2-4.456,6.945-3.569,6.878-2.667,11.1-3.97,11.774S529.937,369.778,528.989,367.919Z" transform="translate(-519.631 -315.57)" fill="#48c4f4"/>
      <path id="Path_4483" data-name="Path 4483" d="M539.167,385.851a56.343,56.343,0,0,0-1.3-10.548c-.353-1.665-.638-3.331-.867-5-.868-1.417-1.639-2.877-2.476-4.315-.863-1.482-2.478-2.424-3.13-4.013a.319.319,0,0,1,.452-.413,11.775,11.775,0,0,1,4.779,5.414,60.624,60.624,0,0,1-.116-8.931c.012-.2.018-.394.028-.591a.409.409,0,0,1-.03-.069c-.73-3.311-3.743-5.885-5.878-8.327a.229.229,0,0,1,.29-.347,13.081,13.081,0,0,1,5.691,5.837c0-3.067-.214-6.133-.485-9.191a.581.581,0,0,1-.311-.253c-1.635-2.643-3.582-5.039-5.334-7.591-.124-.18.131-.352.289-.264a14.128,14.128,0,0,1,5.121,5.549q-.079-.854-.16-1.708c-.272-2.923-.629-5.815-.926-8.733-.272-2.675-.957-5.236-1.071-7.928-.014-.331.473-.331.552-.042a109.219,109.219,0,0,1,2.943,17.166c.009.081.018.163.026.244.02-.08.038-.16.062-.239.179-.6.684-1.127.92-1.712.706-1.748,1.71-3.277,2.344-5.07a.342.342,0,0,1,.652.209,12.043,12.043,0,0,1-.678,2.3,22.514,22.514,0,0,0-1.449,2.839,10.5,10.5,0,0,1-1.711,2.96c.342,3.2.628,6.422.709,9.645a18.342,18.342,0,0,1,4.953-5.257c.221-.179.607.095.4.339-1.208,1.459-2.606,2.729-3.733,4.256a20.479,20.479,0,0,0-1.608,2.894c-.008,1.055-.036,2.11-.1,3.165a59.751,59.751,0,0,0,.116,9.075,15.8,15.8,0,0,1,.916-1.736,6.052,6.052,0,0,1,1.866-1.639c.849-.587,1.471-1.382,2.361-1.911.28-.166.6.281.331.473a16.951,16.951,0,0,0-1.376,1.41,19.18,19.18,0,0,0-2.356,2.191c-.864,1.083-.709,2.623-1.435,3.721.385,2.462.96,4.874,1.309,7.35a47.8,47.8,0,0,1,.68,8.846A10.456,10.456,0,0,0,539.167,385.851Z" transform="translate(-524.854 -319.727)" fill="#72cce5"/>
    </g>
    <g id="Group_1166" data-name="Group 1166" transform="translate(202.815 102.803)">
      <path id="Path_4484" data-name="Path 4484" d="M554.155,391.152c-.38-8.949,6.223-15.015,13.735-18.594a7.168,7.168,0,0,0,2.074-2.735c.863-2.073.982-4.338,1.464-6.5.885-3.979,6.2-5.5,9.741-5.462a7.106,7.106,0,0,1,5.2,2.095c1.444,1.447,1.753,4.181,1.933,6.1a17.107,17.107,0,0,1-1.756,8.907,27.234,27.234,0,0,1-1.467,2.7c-4.55,5.71-11.538,7.653-18.345,10.612-3.881,1.738-5.926,5.945-7.633,10.09a2.551,2.551,0,0,1-2.151,1.285,1.835,1.835,0,0,1-1.905-.812,6.017,6.017,0,0,1-.93-2,9.14,9.14,0,0,1-.306-2.848A21.524,21.524,0,0,1,554.155,391.152Z" transform="translate(-553.796 -357.859)" fill="#7ed0ec"/>
      <path id="Path_4485" data-name="Path 4485" d="M555.7,405.547a12.74,12.74,0,0,0,.2-1.764c.157-.793.233-1.587.45-2.366.172-.614.305-1.24.45-1.863a.178.178,0,0,1-.034-.035,3.98,3.98,0,0,1-.538-2.509,10.553,10.553,0,0,1,.327-2.071,20.383,20.383,0,0,0,.579-2.229.3.3,0,0,1,.6.055,33.221,33.221,0,0,1-.483,3.526,7.96,7.96,0,0,0,.037,1.507,7.847,7.847,0,0,1,.506-1.158,27.713,27.713,0,0,1,5.293-6.706,11.326,11.326,0,0,1,.676-2.408,12.709,12.709,0,0,1,2.452-4.275c.278-.314.809.028.546.381a24.994,24.994,0,0,0-1.908,3.85,3.791,3.791,0,0,0-.317,1.085l.135-.125c1.466-1.343,3.227-2.444,4.764-3.723.689-.573,1.433-1.172,2.148-1.794a9.394,9.394,0,0,1,.152-3.862c.22-1.459,1.231-2.6,1.7-3.953.078-.226.467-.148.416.094-.283,1.344-.961,2.582-1.246,3.938a16.3,16.3,0,0,0-.118,2.97c.311-.3.608-.6.881-.907,2.464-2.773,5.947-6.223,5.687-10.245a.344.344,0,0,1,.677-.121c.557,2.856-.959,5.613-2.687,7.836a11.29,11.29,0,0,0,2.156-1.032,15.9,15.9,0,0,0,3.285-2.808.237.237,0,0,1,.388.271c-1.319,1.941-4.36,4.96-6.981,4.957a57.5,57.5,0,0,1-7.094,6.745l-.029.023c.882-.082,1.865.014,2.633-.112a24.112,24.112,0,0,0,5.73-2.093.183.183,0,0,1,.158.329,19.719,19.719,0,0,1-5.169,2.63c-1.23.32-3.249.734-4.522.193-1.2.964-2.425,1.926-3.586,2.949a1.774,1.774,0,0,1-.125.184.405.405,0,0,1-.239.142,25.307,25.307,0,0,0-2.759,2.881c.086-.027.171-.058.259-.082,1.237-.337,2.432-.72,3.654-1.113a.322.322,0,0,1,.278.581,14.511,14.511,0,0,1-2.89,1.419,11.3,11.3,0,0,0-1.791.61,4.181,4.181,0,0,1-.691.236,16.755,16.755,0,0,0-1.934,5.2c-.239,1.033-.418,2.073-.644,3.108a9.779,9.779,0,0,1-.312,2.059C556.5,406.639,555.4,406.253,555.7,405.547Z" transform="translate(-554.692 -363.996)" fill="#4bbff1"/>
    </g>
    <g id="Group_1168" data-name="Group 1168" transform="translate(178.617 132.617)">
      <path id="Path_4486" data-name="Path 4486" d="M545.234,430.21c-1.154-1.25-3.064-1.5-4.844-1.505,1.762-1.445,2.412-3.259.48-5.662-1.782-2.216-4.972-1.471-7.505-.433,1.081-1.965,2.18-5.087-.318-5.773-3.254-.9-6.778,2.505-8.621,4.705-.346.414-.7.819-1.06,1.225.209-.937.418-1.873.614-2.813.552-2.659-.817-6.152-3.741-3.433-3.267,3.039-3.144,7.029-4.178,10.985a15.583,15.583,0,0,0-2.77-1.675c-2.718-1.262-6.65-1.2-6.283,2.7.326,3.469,4.867,7.476,8.083,8.266a25.64,25.64,0,0,0,6.292.782c2.723,0,5.381-.731,8.056-.738,2.365-.007,4.734-.448,7.09-.319a15.226,15.226,0,0,0,5.614-.726C544.236,435.149,547.406,432.564,545.234,430.21Z" transform="translate(-506.984 -415.534)" fill="#00a4e2"/>
      <g id="Group_1167" data-name="Group 1167" transform="translate(1.564 2.692)">
        <path id="Path_4487" data-name="Path 4487" d="M518.152,445.872a17.354,17.354,0,0,0-7.057-7.489.732.732,0,0,0-.738,1.263,17.438,17.438,0,0,1,3.9,3.458,17.373,17.373,0,0,0,3.213,3.289C517.789,446.6,518.311,446.25,518.152,445.872Z" transform="translate(-510.009 -429.212)" fill="#0cbbf3"/>
        <path id="Path_4488" data-name="Path 4488" d="M532.506,421.784c-1.653,4.826-1.291,9.429-1.181,14.472a.732.732,0,0,0,1.462,0,133.719,133.719,0,0,1,.475-14.37C533.316,421.433,532.638,421.4,532.506,421.784Z" transform="translate(-520.253 -421.116)" fill="#0cbbf3"/>
        <path id="Path_4489" data-name="Path 4489" d="M547.772,420.842c-4.091,4.206-5,9.771-6.42,15.307-.148.576.708.978.985.415a48.606,48.606,0,0,0,2.444-6.6c.987-3.02,2.509-5.795,3.6-8.761C548.513,420.845,548.016,420.591,547.772,420.842Z" transform="translate(-525.142 -420.741)" fill="#0cbbf3"/>
        <path id="Path_4490" data-name="Path 4490" d="M561.9,432.939a20.224,20.224,0,0,0-4.91,2.973c-2.068,1.913-3.609,4.047-5.969,5.71-.661.466-.044,1.559.641,1.1a30.276,30.276,0,0,0,5.483-4.771,13.023,13.023,0,0,1,2.642-2.378c.94-.607,1.415-1.562,2.346-2.233A.231.231,0,0,0,561.9,432.939Z" transform="translate(-529.685 -426.62)" fill="#0cbbf3"/>
        <path id="Path_4491" data-name="Path 4491" d="M572.55,444.593c-2.057-.052-3.607,1.237-5.506,1.786a.636.636,0,0,0,.337,1.225,28.689,28.689,0,0,0,5.343-2.366A.349.349,0,0,0,572.55,444.593Z" transform="translate(-537.345 -432.262)" fill="#0cbbf3"/>
      </g>
    </g>
    <g id="Group_1175" data-name="Group 1175" transform="translate(15.593 59.414)">
      <g id="Group_1169" data-name="Group 1169" transform="translate(0 1.502)">
        <path id="Path_4492" data-name="Path 4492" d="M334.2,284.208c12.041-1,4.125,8.105,4.125,8.105l18.7-12.28Z" transform="translate(-260.493 -278.376)" fill="#acdee7"/>
        <path id="Path_4493" data-name="Path 4493" d="M336.365,276.833c4.161,1.972-1.743,5.564-2.164,5.829l22.825-4.175Z" transform="translate(-260.493 -276.83)" fill="#59c2d3"/>
        <path id="Path_4494" data-name="Path 4494" d="M342.181,292.313c5.944-.823,4.754,2.859,4.754,2.859l13.946-15.139Z" transform="translate(-264.348 -278.376)" fill="#59c2d3"/>
        <path id="Path_4495" data-name="Path 4495" d="M290.685,303.671c5.943-.824,4.754,2.858,4.754,2.858l-58.207,23.582-1.643-3.958Z" transform="translate(-212.856 -289.736)" fill="#0091c5"/>
        <path id="Path_4496" data-name="Path 4496" d="M210.424,357.925l-9.746,3.876a22.46,22.46,0,0,1-2.618-3.53l10.727-4.288Z" transform="translate(-194.727 -314.099)" fill="#0091c5"/>
        <path id="Path_4497" data-name="Path 4497" d="M228.677,310.011l54.517-21.975.027,0c12.04-1,4.125,8.105,4.125,8.105l-55.1,22.483Z" transform="translate(-209.517 -282.202)" fill="#45a1cf"/>
        <path id="Path_4498" data-name="Path 4498" d="M205.78,345.91,195.053,350.2a22.065,22.065,0,0,1-3.219-8.826l10.36-4.1Z" transform="translate(-191.719 -306.027)" fill="#45a1cf"/>
        <path id="Path_4499" data-name="Path 4499" d="M281.605,282.656l-.027,0-54.517,21.975-1.729-4.164,58.436-23.645C287.93,278.8,282.027,282.391,281.605,282.656Z" transform="translate(-207.902 -276.827)" fill="#0091c5"/>
        <path id="Path_4500" data-name="Path 4500" d="M191.727,337.492a17.016,17.016,0,0,1,.131-4.873l8.505-3.38,1.723,4.152Z" transform="translate(-191.612 -302.146)" fill="#0091c5"/>
        <path id="Path_4501" data-name="Path 4501" d="M227.521,347.339l1.606,3.972-8.71,3.371-1.6-3.957Z" transform="translate(-204.754 -310.89)" fill="#59c2d3"/>
        <path id="Path_4502" data-name="Path 4502" d="M215.462,342.7l-3.585-8.637,8.685-3.437,3.573,8.608Z" transform="translate(-201.401 -302.815)" fill="#acdee7"/>
        <path id="Path_4503" data-name="Path 4503" d="M210.265,330.169l-1.724-4.152,8.68-3.449,1.729,4.165Z" transform="translate(-199.79 -298.923)" fill="#59c2d3"/>
      </g>
      <g id="Group_1174" data-name="Group 1174" transform="translate(33.168 0)">
        <g id="Group_1173" data-name="Group 1173" transform="translate(0 32.088)">
          <g id="Group_1172" data-name="Group 1172" transform="translate(0 36.55)">
            <g id="Group_1170" data-name="Group 1170" transform="translate(13.878 0.343)">
              <rect id="Rectangle_704" data-name="Rectangle 704" width="1.508" height="2.795" transform="translate(2.028 2.795) rotate(180)" fill="#fcc8a5"/>
              <path id="Path_4504" data-name="Path 4504" d="M284.833,410.863l4.946.892a1.013,1.013,0,0,1,.8,1.018h0a.248.248,0,0,1-.241.257l-7.715-.095v-2.073A1.575,1.575,0,0,0,284.833,410.863Z" transform="translate(-282.623 -409.056)" fill="#062e64"/>
            </g>
            <g id="Group_1171" data-name="Group 1171" transform="translate(0 0)">
              <rect id="Rectangle_705" data-name="Rectangle 705" width="1.508" height="2.795" transform="matrix(-0.961, -0.277, 0.277, -0.961, 1.799, 3.104)" fill="#fcc8a5"/>
              <path id="Path_4505" data-name="Path 4505" d="M257.986,410.863l4.946.892a1.013,1.013,0,0,1,.8,1.018h0a.248.248,0,0,1-.241.257l-7.715-.095v-2.073A1.575,1.575,0,0,0,257.986,410.863Z" transform="translate(-255.776 -408.713)" fill="#062e64"/>
            </g>
          </g>
          <path id="Path_4506" data-name="Path 4506" d="M271.094,336c-.988,10.557,3.656,19.251,1.55,38.1h-2.028s-.858-21.737-4.447-23.609l-6.942,22.855h-2.106l3.744-33.152Z" transform="translate(-256.426 -335.996)" fill="#0052a1"/>
          <path id="Path_4507" data-name="Path 4507" d="M274.625,358.775l1.4-5.626-.7,6.281S274.881,359,274.625,358.775Z" transform="translate(-264.882 -344.282)" fill="#062e64"/>
          <path id="Path_4508" data-name="Path 4508" d="M275.653,346.15c-.046-4.758-8.028-6.436-8.028-6.436l-.138-.183L276.1,336c-.988,10.557,3.656,19.251,1.55,38.1h-.312C278.772,367.907,275.653,346.15,275.653,346.15Z" transform="translate(-261.433 -335.996)" fill="#062e64"/>
          <path id="Path_4509" data-name="Path 4509" d="M267.874,359.424a2.149,2.149,0,0,0-.692-.649L260.24,381.63h-1.022l9.366-28.482S268.26,356.057,267.874,359.424Z" transform="translate(-257.438 -344.282)" fill="#062e64"/>
          <path id="Path_4510" data-name="Path 4510" d="M267.754,340.276l5.414.619a1.908,1.908,0,0,0,2.118-1.743l.159-1.992Z" transform="translate(-261.562 -336.558)" fill="#003c8c"/>
        </g>
        <path id="Path_4511" data-name="Path 4511" d="M273.636,281.418s1.3,6.054-2.027,6.938v2.236h-4.68v-9.673l5.98-.416Z" transform="translate(-261.164 -277.101)" fill="#fcc8a5"/>
        <path id="Path_4512" data-name="Path 4512" d="M270.29,278.221s6.318.624,4.29-2.535a2.49,2.49,0,0,0-2.5-1.053s.546-1.365-1.794-.312-6.305.637-5.993,5.694c0,0-.4,4.369,2.561,4.056,0,0,1.6-.78,1.755-1.833,0,0-1.092-4.1,1.638-2.73Z" transform="translate(-259.883 -273.922)" fill="#062e64"/>
        <path id="Path_4513" data-name="Path 4513" d="M290.975,331.954a5.168,5.168,0,0,0,2.556-.115c.728-.442,1.534.052,1.3.624,0,0,1.17.754.156,1.17,0,0,.52.832-.364.988-.364,0-3.953-.4-3.953-.4Z" transform="translate(-272.632 -301.818)" fill="#fcc8a5"/>
        <path id="Path_4514" data-name="Path 4514" d="M271.911,298.508a23.988,23.988,0,0,0-10.475.256s-4.108,1.612-1.144,8.945,2.7,7.852,3.588,8.892,12.377,1.788,12.377,1.788V315.58l-7.934-1.206a2.907,2.907,0,0,1-2.2-2.42l-1.014-7.684a3.381,3.381,0,0,1,2.436-3.729Z" transform="translate(-257.438 -285.585)" fill="#0052a1"/>
      </g>
    </g>
    <g id="Group_1180" data-name="Group 1180" transform="translate(21.209 104.149)">
      <path id="Path_4515" data-name="Path 4515" d="M236.061,360.529c-1.349-.645-2.692,3.649-2.692,3.649-2.293,3.03-5.5-1-5.184,3.529.548,7.925-9.123,2.493-4.661,10.766s-3.939,4.679-1.167,11.351-.821,14.629,3.351,11.359c0,0,3.674-8.055,7.462-10.547s-2.269-5.449-1.085-8.835c1.722-4.917,5.87-4.723,2.879-10.007S240.646,362.723,236.061,360.529Z" transform="translate(-211.803 -360.463)" fill="url(#linear-gradient-6)"/>
      <g id="Group_1176" data-name="Group 1176" transform="translate(12.412 8.402)">
        <path id="Path_4516" data-name="Path 4516" d="M226.66,406c1.808-1.272,3.924-10.134,4.051-15.413a7.438,7.438,0,0,1,1.569-4.824,4.079,4.079,0,0,0,.918-3.654c-.649-3.6,1.056-5.155,1.073-5.17l-.2-.225c-.076.066-1.851,1.67-1.17,5.448a3.791,3.791,0,0,1-.867,3.428,7.782,7.782,0,0,0-1.624,4.99c-.136,5.665-2.3,14.033-3.924,15.176Z" transform="translate(-226.488 -376.718)" fill="#fff"/>
      </g>
      <g id="Group_1177" data-name="Group 1177" transform="translate(0 20.594)">
        <path id="Path_4517" data-name="Path 4517" d="M214.384,418.055a3.855,3.855,0,0,0,.765-.083,1.666,1.666,0,0,0,1.358-1.093c.488-1.394-.642-3.659-1.559-4.751a6.97,6.97,0,0,1-1.386-4.493c.027-.436.072-.839.113-1.195.115-1.029.2-1.772-.243-2.268-.39-.437-1.141-.627-2.513-.634a4.975,4.975,0,0,1-4.123-1.808,4.366,4.366,0,0,0-1-.865h0c-1.2-.654-2.469-.751-3.02-.229-.262.248-.483.734-.049,1.64a6.308,6.308,0,0,0,1.323,1.773c.555.567.922.941.731,1.688-.044.175-.1.352-.148.529-.371,1.269-.791,2.708,1.381,3.684.461.207.88.372,1.251.517a5.078,5.078,0,0,1,3.464,3.135c.2.422.376.822.547,1.209C212.085,416.659,212.7,418.054,214.384,418.055Zm-8.736-16.926a4.077,4.077,0,0,1,.931.809,5.236,5.236,0,0,0,4.338,1.9c1.262.006,1.968.17,2.291.532.353.4.276,1.085.17,2.036-.04.359-.086.767-.114,1.21a7.138,7.138,0,0,0,1.455,4.7c.908,1.081,1.935,3.231,1.505,4.46a1.387,1.387,0,0,1-1.135.9c-2.045.414-2.609-.866-3.546-2.986-.172-.389-.349-.791-.55-1.217a5.366,5.366,0,0,0-3.626-3.285c-.368-.145-.784-.308-1.238-.512-1.934-.869-1.585-2.063-1.216-3.327.053-.18.105-.361.151-.539.233-.91-.226-1.378-.807-1.972a5.984,5.984,0,0,1-1.266-1.693c-.2-.41-.359-.968-.015-1.294.452-.429,1.6-.311,2.671.274Z" transform="translate(-202.476 -400.302)" fill="url(#linear-gradient-7)"/>
      </g>
      <g id="Group_1178" data-name="Group 1178" transform="translate(2.319 22.982)">
        <path id="Path_4518" data-name="Path 4518" d="M217.284,422.013l.3-.015c-.014-.281-.391-6.895-3.047-8.831a10.63,10.63,0,0,1-4.27-5.938c-.515-1.8-3.139-2.287-3.25-2.307l-.052.295c.025,0,2.551.47,3.015,2.1a10.916,10.916,0,0,0,4.381,6.1C216.9,415.261,217.28,421.946,217.284,422.013Z" transform="translate(-206.963 -404.922)" fill="url(#linear-gradient-8)"/>
      </g>
      <path id="Path_4519" data-name="Path 4519" d="M213.163,373.433c1.887-.648,1.495,2.99,2.293,5.682s8.873,1.174,5.483,7.915,4.287,2.254,1.994,8.136-.2,12.172-2.692,10.572-1.4-9.007-3.992-9.887-3.015-1.906-.449-4.3-6.725-4.768-4.432-9.6S210.982,374.181,213.163,373.433Z" transform="translate(-206.594 -366.692)" fill="url(#linear-gradient-9)"/>
      <g id="Group_1179" data-name="Group 1179" transform="translate(7.518 15.178)">
        <path id="Path_4520" data-name="Path 4520" d="M221.991,413.412c.238-1.008,2.265-9.869.373-10.94-1.667-.944-1.626-4.616-1.366-8.083.23-3.07-3.712-4.5-3.88-4.563l-.1.282c.039.014,3.895,1.418,3.681,4.26-.267,3.561-.3,7.339,1.517,8.365,1.437.814.114,7.935-.517,10.611Z" transform="translate(-217.019 -389.826)" fill="#fff"/>
      </g>
      <path id="Path_4521" data-name="Path 4521" d="M218.338,429.349l2.695,10.224h6.022l2.695-10.224Z" transform="translate(-210.139 -393.741)" fill="#0073b3"/>
      <path id="Path_4522" data-name="Path 4522" d="M218.338,429.349s5.933,1.114,5.933,10.224h2.785l2.695-10.224Z" transform="translate(-210.139 -393.74)" fill="#443b8f"/>
    </g>
    <g id="Group_1183" data-name="Group 1183" transform="translate(96.071 73.588)">
      <g id="Group_1182" data-name="Group 1182" transform="translate(0 0)" clip-path="url(#clip-path)">
        <g id="Group_1181" data-name="Group 1181" transform="translate(3.524 2.936)">
          <path id="Path_4523" data-name="Path 4523" d="M354.427,314.544a.786.786,0,0,1,.023-.585.449.449,0,0,1,.5-.244.78.78,0,0,1-.2-1.543.882.882,0,0,1,.357-1.455.567.567,0,0,1,.348-1,.8.8,0,0,1,1.123-1.048.592.592,0,0,1,.941-.691.84.84,0,0,1,1.6-.469,1.192,1.192,0,0,1,1.57-.042A1.046,1.046,0,0,1,362.5,308a.8.8,0,0,1,1.336.72.723.723,0,0,1,.816,1.165,1.339,1.339,0,0,1,.757.462c.162.255.05.686-.251.711a.828.828,0,0,1-.088,1.621.978.978,0,0,1-.157,1.84c.24.291.029.724-.185,1.035l-.444.648c-.235.342-.573.728-.977.639a.706.706,0,0,1-.846.714.466.466,0,0,1-.847.372,1.165,1.165,0,0,1-1.7.127,1.147,1.147,0,0,1-1.646-.2.566.566,0,1,1-.827-.737,2.446,2.446,0,0,0-.689.019.9.9,0,0,1-.657-.148.392.392,0,0,1-.023-.6.533.533,0,0,1-.729.047.58.58,0,0,1,.191-.954C355.108,315.177,354.615,315.159,354.427,314.544Z" transform="translate(-354.114 -307.022)" fill="#00488f"/>
          <path id="Path_4524" data-name="Path 4524" d="M364.895,332.283a5.116,5.116,0,0,0-1.88-.875,2.464,2.464,0,0,1-4.906,0,5.115,5.115,0,0,0-1.88.875,2.32,2.32,0,0,0-.765,2.359H365.66A2.321,2.321,0,0,0,364.895,332.283Z" transform="translate(-354.732 -318.802)" fill="#443b8f"/>
          <path id="Path_4525" data-name="Path 4525" d="M365.553,329.1c-.273-.073-.533-.128-.756-.169a.906.906,0,0,1-.747-.892v-1.209l-.95-.2h0l-.95.2v1.209a.906.906,0,0,1-.747.892c-.224.041-.483.1-.756.169a2.3,2.3,0,0,0,2.453,2.229h0A2.3,2.3,0,0,0,365.553,329.1Z" transform="translate(-357.27 -316.491)" fill="#ba6f45"/>
          <path id="Path_4526" data-name="Path 4526" d="M365.836,315.555c0-.02,0-.039,0-.059a3.39,3.39,0,1,0-6.78,0c0,.02,0,.039,0,.059a3.46,3.46,0,0,1-.034-.488,3.424,3.424,0,1,1,6.848,0A3.46,3.46,0,0,1,365.836,315.555Z" transform="translate(-356.485 -309.254)" fill="#062e64"/>
          <path id="Path_4527" data-name="Path 4527" d="M365.256,317.842s-.178.358-.455-1.057a1.782,1.782,0,0,0-1.674-1.446,5.29,5.29,0,0,1-1.846,0,1.782,1.782,0,0,0-1.674,1.446c-.276,1.414-.455,1.057-.455,1.057s-.894-.244-.293,1.219c.293.618.634.52.634.52s.01,1.853,2.711,2.357c2.7-.5,2.711-2.357,2.711-2.357s.341.1.634-.52C366.151,317.6,365.256,317.842,365.256,317.842Z" transform="translate(-356.306 -311.04)" fill="#ba6f45"/>
        </g>
      </g>
    </g>
    <g id="Group_1214" data-name="Group 1214" transform="translate(73.361 87.747)">
      <path id="Path_4529" data-name="Path 4529" d="M306.995,353.72s-.467,6.554.813,7.338c.8.491,4,2.148,3.906,2.459s-1.806,2.766-1.806,2.766-6.144-4.046-6.342-5.321c-.193-1.246.3-9.6,1.146-9.981.633-.288.967-.05,1.764.542A1.866,1.866,0,0,1,306.995,353.72Z" transform="translate(-303.442 -339.421)" fill="#062e64"/>
      <g id="Group_1185" data-name="Group 1185" transform="translate(13.558 14.423)">
        <g id="Group_1184" data-name="Group 1184">
          <path id="Path_4530" data-name="Path 4530" d="M330.785,358.38l.542-.2s-.676-1.585-.97-1.547a7.309,7.309,0,0,0-.764.157Z" transform="translate(-329.593 -356.633)" fill="#e5cec4"/>
        </g>
      </g>
      <g id="Group_1187" data-name="Group 1187" transform="translate(11.412 14.317)">
        <g id="Group_1186" data-name="Group 1186">
          <path id="Path_4531" data-name="Path 4531" d="M328.9,358.555c-.069-.052-1.151-2.127-1.151-2.127l-2.312.314,1.249,2.458Z" transform="translate(-325.44 -356.428)" fill="#d48847"/>
        </g>
      </g>
      <g id="Group_1189" data-name="Group 1189" transform="translate(0.329 61.822)">
        <g id="Group_1188" data-name="Group 1188">
          <path id="Path_4532" data-name="Path 4532" d="M306.51,448.5s-.191,1.326-.215,1.525-2.125-.117-2.125-.117l-.17-1.579A12.441,12.441,0,0,1,306.51,448.5Z" transform="translate(-304 -448.328)" fill="#2e3861"/>
        </g>
      </g>
      <g id="Group_1191" data-name="Group 1191" transform="translate(0 63.26)">
        <g id="Group_1190" data-name="Group 1190">
          <path id="Path_4533" data-name="Path 4533" d="M306.011,451.2a5.681,5.681,0,0,0,1.309,1.147c.644.348,1.656.486,2.037.847.275.26,1,1.381-1.673,1.358s-3.964.158-4.251-.271.415-3.171.415-3.171A5.662,5.662,0,0,0,306.011,451.2Z" transform="translate(-303.364 -451.11)" fill="#062e64"/>
        </g>
      </g>
      <g id="Group_1193" data-name="Group 1193" transform="translate(10.846 61.822)">
        <g id="Group_1192" data-name="Group 1192">
          <path id="Path_4534" data-name="Path 4534" d="M326.855,448.5s-.191,1.326-.215,1.525-2.125-.117-2.125-.117l-.17-1.579A12.44,12.44,0,0,1,326.855,448.5Z" transform="translate(-324.345 -448.328)" fill="#2e3861"/>
        </g>
      </g>
      <g id="Group_1195" data-name="Group 1195" transform="translate(10.517 63.26)">
        <g id="Group_1194" data-name="Group 1194">
          <path id="Path_4535" data-name="Path 4535" d="M326.356,451.2a5.682,5.682,0,0,0,1.309,1.147c.644.348,3.014.635,3.395,1,.275.26.732,1.308-3.031,1.21-2.674-.07-3.964.158-4.25-.271s.415-3.171.415-3.171A5.139,5.139,0,0,0,326.356,451.2Z" transform="translate(-323.71 -451.11)" fill="#062e64"/>
        </g>
      </g>
      <g id="Group_1197" data-name="Group 1197" transform="translate(0 27.919)">
        <g id="Group_1196" data-name="Group 1196">
          <path id="Path_4536" data-name="Path 4536" d="M306.957,382.742s-1.974,3.137-1.827,5.973a59.79,59.79,0,0,1-.472,8.827c-.331,3.3-1.232,10.175-1.281,11.941s.065,8.413.065,8.413l3.425-.026s1.215-13.428,1.8-14.823,3.008-11.483,3.106-12.6S306.957,382.742,306.957,382.742Z" transform="translate(-303.364 -382.742)" fill="#062e64"/>
        </g>
      </g>
      <g id="Group_1199" data-name="Group 1199" transform="translate(2.599 27.379)">
        <g id="Group_1198" data-name="Group 1198">
          <path id="Path_4537" data-name="Path 4537" d="M319.78,382.662s.78,7.709.976,9.445.062,9.256.16,10.341-.657,12.558-.843,14.743l-3.764-.024s-.26-9.281-.26-13.79a35.291,35.291,0,0,0-2.483-12.734c-1.326-2.975-4.36-3.046-5.175-8.566C308.392,382.076,318.677,380.911,319.78,382.662Z" transform="translate(-308.392 -381.696)" fill="#062e64"/>
        </g>
      </g>
      <g id="Group_1201" data-name="Group 1201" transform="translate(4.531 0.803)">
        <g id="Group_1200" data-name="Group 1200">
          <path id="Path_4538" data-name="Path 4538" d="M313.278,330.951s2.353-1.571,4,.112,2.464,5.642,1.278,6.432-3.2,1-4.154-.075a10.1,10.1,0,0,1-2.226-3.9A2.658,2.658,0,0,1,313.278,330.951Z" transform="translate(-312.13 -330.284)" fill="#ba6f45"/>
        </g>
      </g>
      <g id="Group_1203" data-name="Group 1203" transform="translate(5.983 6.604)">
        <g id="Group_1202" data-name="Group 1202">
          <path id="Path_4539" data-name="Path 4539" d="M319.117,343.182a8.577,8.577,0,0,0,.151,2.006c.182.352-3.433.362-3.433.362a23.855,23.855,0,0,0-.85-3.537C314.428,340.392,319.117,343.182,319.117,343.182Z" transform="translate(-314.939 -341.507)" fill="#ba6f45"/>
        </g>
      </g>
      <g id="Group_1205" data-name="Group 1205" transform="translate(6.466 9.252)">
        <g id="Group_1204" data-name="Group 1204">
          <path id="Path_4540" data-name="Path 4540" d="M319.934,347.62s-.012-.674-.317-.738a21.8,21.8,0,0,0-3.745-.212v.785S316.6,347.9,319.934,347.62Z" transform="translate(-315.873 -346.629)" fill="#dcc7be"/>
        </g>
      </g>
      <g id="Group_1207" data-name="Group 1207" transform="translate(22.684 18.199)">
        <g id="Group_1206" data-name="Group 1206">
          <path id="Path_4541" data-name="Path 4541" d="M347.251,363.939h-.005C347.267,363.948,347.27,363.949,347.251,363.939Z" transform="translate(-347.246 -363.939)" fill="#212946"/>
        </g>
      </g>
      <g id="Group_1209" data-name="Group 1209" transform="translate(0.749 10.077)">
        <g id="Group_1208" data-name="Group 1208">
          <path id="Path_4542" data-name="Path 4542" d="M319.068,349.325c-2.18-.384-4.476-.934-4.476-.934l-4.061-.165a39.491,39.491,0,0,0-5.2,1.484c-.139.063-.14,3.325-.522,4.18l1.217,2.568s.7,5.086.849,7.348c.067,1.038-1.45,9.736-1.45,9.736a28.028,28.028,0,0,0,4.4.784c2.772.306,9.7-.111,9.74-.438s-1.341-12.19-1.4-12.8c-.094-.943.272-5.3.272-5.3.522.7,3,3.751,4.393,5.258a21.617,21.617,0,0,0,4.514,2.738c1.5.672,3.915,2.216,4,2.054a16.472,16.472,0,0,0,1.5-2.9c-.166-.055-5.208-3.139-6.648-3.9-.526-.279-2.577-3.8-2.577-3.8S320.271,349.866,319.068,349.325Z" transform="translate(-304.814 -348.226)" fill="#0052a1"/>
        </g>
      </g>
      <g id="Group_1211" data-name="Group 1211" transform="translate(3.757 1.874)">
        <g id="Group_1210" data-name="Group 1210">
          <path id="Path_4543" data-name="Path 4543" d="M311.874,332.357s-3.365.9.985,5.079Z" transform="translate(-310.633 -332.357)" fill="#062e64"/>
        </g>
      </g>
      <path id="Path_4544" data-name="Path 4544" d="M360,380.252a1.352,1.352,0,0,1-.427-.053s-.23-.127-.4-.208a1.31,1.31,0,0,0-.133-.057,2.48,2.48,0,0,1-.732-.292c-.292-.194-1.254-.983-1.254-.983l.527-.939.212-.909a16.08,16.08,0,0,1,2.42.222.9.9,0,0,1,.081.047,3.141,3.141,0,0,1,.463.454c.042.035.436.4.425.565a.528.528,0,0,1-.248.45,1.262,1.262,0,0,1-.257.644.784.784,0,0,1-.365.588S360.233,380.188,360,380.252Z" transform="translate(-329.299 -351.958)" fill="#ba6f45"/>
      <path id="Path_4545" data-name="Path 4545" d="M317.141,332.767c.59-.095-.047-.967-.283-1.179.424-.33-.189-1.439-.661-1.486a.9.9,0,0,0-.5-1.014c-.293-.135-.546.116-.858,0-.246-.092-.282-.39-.606-.353-.211.024-.329.259-.494.283-.33.071-.92-.283-.943.307-.307-.33-.826-.33-.873.212-.424-.283-.826.26-.826.66-.519-.118-.613.542-.59.9-.542,0-.5.8-.307,1.132a.632.632,0,0,0,.071,1.014c-.236.307-.118,1.108.33,1.132-.5.6.493.728,1,.528.037.047.075.091.114.134a.137.137,0,0,0,.113.115l.007.007c-.069.166.307.731.449.63a.192.192,0,0,0,.279.177c.051.118.177.11.271.161.11.051.262.228.372.042a.3.3,0,0,0,.482,0c.152.076.363.161.448-.034a.615.615,0,0,0,.279.135c.127-.008.135-.084.245-.11s.195.068.3-.017.11-.287.161-.406c.194.1.415-.009.347-.246.152.015.255-.124.3-.286a2.267,2.267,0,0,0,.4.04c.4-.023,1.25-.26.707-.731C317.919,334.442,317.211,333.286,317.141,332.767Z" transform="translate(-306.561 -328.732)" fill="#062e64"/>
      <g id="Group_1213" data-name="Group 1213" transform="translate(8.865 3.444)">
        <g id="Group_1212" data-name="Group 1212">
          <path id="Path_4546" data-name="Path 4546" d="M321.436,335.775c-.11-.22-.86-.746-.919.02s.737,1.591,1.035,1.434S321.716,336.333,321.436,335.775Z" transform="translate(-320.514 -335.394)" fill="#ba6f45"/>
        </g>
      </g>
    </g>
  </g>
</svg>
