<svg id="Group_1300" data-name="Group 1300" xmlns="http://www.w3.org/2000/svg" xmlns:xlink="http://www.w3.org/1999/xlink" width="420.409" height="312.476" viewBox="0 0 420.409 312.476">
  <defs>
    <linearGradient id="linear-gradient" x1="0.763" y1="-0.069" x2="0.697" y2="1.044" gradientUnits="objectBoundingBox">
      <stop offset="0" stop-color="#c5e9f9"/>
      <stop offset="1" stop-color="#f9fbfe"/>
    </linearGradient>
    <linearGradient id="linear-gradient-2" x1="-146.797" y1="-4.577" x2="-145.76" y2="-4.577" gradientUnits="objectBoundingBox">
      <stop offset="0" stop-color="#46bdd3"/>
      <stop offset="1" stop-color="#3c5fa9"/>
    </linearGradient>
    <linearGradient id="linear-gradient-3" x1="-61.98" y1="67.527" x2="-61.98" y2="66.376" xlink:href="#linear-gradient-2"/>
    <linearGradient id="linear-gradient-4" x1="-314.123" y1="-4.537" x2="-313.076" y2="-4.537" xlink:href="#linear-gradient-2"/>
    <linearGradient id="linear-gradient-5" x1="-61.971" y1="54.842" x2="-61.971" y2="53.704" xlink:href="#linear-gradient-2"/>
    <linearGradient id="linear-gradient-6" x1="-218.865" y1="0.5" x2="-217.865" y2="0.5" xlink:href="#linear-gradient-2"/>
    <linearGradient id="linear-gradient-7" x1="-240.51" y1="0.5" x2="-239.51" y2="0.5" xlink:href="#linear-gradient-2"/>
    <linearGradient id="linear-gradient-8" x1="-320.536" y1="0.5" x2="-319.536" y2="0.5" xlink:href="#linear-gradient-2"/>
    <linearGradient id="linear-gradient-9" x1="-275.715" y1="0.5" x2="-274.715" y2="0.5" xlink:href="#linear-gradient-2"/>
    <linearGradient id="linear-gradient-10" x1="-0.176" y1="0.5" x2="0.824" y2="0.5" xlink:href="#linear-gradient-2"/>
    <linearGradient id="linear-gradient-11" x1="-14.579" y1="51.398" x2="-13.969" y2="51.398" xlink:href="#linear-gradient-2"/>
    <linearGradient id="linear-gradient-12" x1="-1.288" y1="15.102" x2="-0.388" y2="15.102" xlink:href="#linear-gradient-2"/>
    <linearGradient id="linear-gradient-13" x1="-41.392" y1="-31.866" x2="-40.708" y2="-31.866" xlink:href="#linear-gradient-2"/>
    <linearGradient id="linear-gradient-14" x1="-80.358" y1="-6.301" x2="-79.404" y2="-6.301" xlink:href="#linear-gradient-2"/>
    <linearGradient id="linear-gradient-15" x1="-1.451" y1="-5.85" x2="-0.47" y2="-6.482" xlink:href="#linear-gradient-2"/>
    <linearGradient id="linear-gradient-16" x1="0.452" y1="1.465" x2="0.526" y2="0.26" gradientUnits="objectBoundingBox">
      <stop offset="0" stop-color="#348898"/>
      <stop offset="1" stop-color="#2a4172"/>
    </linearGradient>
  </defs>
  <path id="Path_4670" data-name="Path 4670" d="M197.232,392.585c-16.5.692-33.842-.342-48.013-8.813s-23.874-26.343-18.261-41.869c6.172-17.071,26.984-24.413,35.891-40.23,10.338-18.357,1.665-41.1-6.347-60.587s-14.713-43.578-1.663-60.117c13.03-16.512,38.19-15.623,58.654-10.76s42.606,12.032,61.728,3.272c12.734-5.833,21.44-17.687,30.147-28.658,11.728-14.779,24.814-29.06,41.483-37.9s37.613-11.458,54.329-2.711c13.521,7.074,22.47,20.29,32.5,31.79,23.76,27.244,57.827,48.9,93.827,53.859,37.425,5.163,7.8,54.953-5.4,68.321-7.86,7.96-17.389,14.1-25.408,21.9s-14.7,18.051-14.428,29.233c.395,15.97,14.132,27.8,25.36,39.168s21.358,28.537,13.473,42.43c-6.279,11.065-20.709,13.875-33.356,15.255a874.5,874.5,0,0,1-158.287,2.819c-25.1-1.828-52.992-2.575-77.334-9.393-7.252-2.031-13.635-6.243-21.028-7.765C223,389.339,209.443,392.073,197.232,392.585Z" transform="translate(-129.341 -98.828)" fill="url(#linear-gradient)"/>
  <g id="Group_1126" data-name="Group 1126" transform="translate(52.449 98.419)">
    <g id="Group_1061" data-name="Group 1061" transform="translate(0 26.824)">
      <g id="Group_1058" data-name="Group 1058" transform="translate(0 25.217)">
        <path id="Path_4278" data-name="Path 4278" d="M240.482,292.454c5.415,11.818,8.458,23,4.471,27.988a6.565,6.565,0,0,1-.771.811c-3.072,2.706-9.112,2.767-19.311-1.262-27.142-10.721-28.43-29.224-33.919-47.293-5.412-17.842-24.316-14.828-24.8-14.747C210.2,242.608,231.294,272.419,240.482,292.454Z" transform="translate(-166.153 -253.719)" fill="url(#linear-gradient-2)"/>
        <g id="Group_1057" data-name="Group 1057" transform="translate(38.595 16.469)">
          <path id="Path_4279" data-name="Path 4279" d="M262.756,328.039a6.558,6.558,0,0,1-.771.811c-5.1-3.071-14.861-9.583-19.464-16.893a108.6,108.6,0,0,1-5.931-11.434c-3.652-7.762-7.436-15.789-14.038-21.945l.736-.794c6.753,6.3,10.577,14.423,14.276,22.28a105.687,105.687,0,0,0,5.869,11.315C247.923,318.511,257.786,325.048,262.756,328.039Z" transform="translate(-222.552 -277.784)" fill="url(#linear-gradient-3)"/>
        </g>
      </g>
      <g id="Group_1060" data-name="Group 1060" transform="translate(37.084)">
        <path id="Path_4280" data-name="Path 4280" d="M252.872,285.65c-.319.786-.526,1.232-.549,1.281-.083-.434-.164-.864-.246-1.28-3.621-18.553-8.463-20.491-22.981-36.72-14.847-16.6-6.309-32.061-6.309-32.061C272.528,231.24,256.253,277.357,252.872,285.65Z" transform="translate(-220.344 -216.869)" fill="url(#linear-gradient-4)"/>
        <g id="Group_1059" data-name="Group 1059" transform="translate(14.535 19.377)">
          <path id="Path_4281" data-name="Path 4281" d="M259.577,294.589c-.319.786-.526,1.232-.549,1.281-.083-.434-.164-.864-.246-1.28,1.611-16.039-8.065-34.86-11.105-38.236-3.146-3.5-5.084-8.306-5.816-10.118-.123-.3-.239-.586-.276-.654l.7-.4c.062.109.142.309.321.749.716,1.775,2.619,6.488,5.671,9.877C252.13,260.094,261.056,279,259.577,294.589Z" transform="translate(-241.584 -245.185)" fill="url(#linear-gradient-5)"/>
        </g>
      </g>
    </g>
    <path id="Path_4282" data-name="Path 4282" d="M451.672,197.667V305.995a9.935,9.935,0,0,1-9.938,9.938H272.97a9.934,9.934,0,0,1-9.932-9.938V197.667Z" transform="translate(-196.737 -183.983)" fill="#8ba1d3"/>
    <path id="Path_4283" data-name="Path 4283" d="M451.672,187.609v3.746H263.038v-3.746a9.934,9.934,0,0,1,9.932-9.938H441.734A9.935,9.935,0,0,1,451.672,187.609Z" transform="translate(-196.737 -177.671)" fill="#2c70b7"/>
    <g id="Group_1062" data-name="Group 1062" transform="translate(74.036 4.48)">
      <rect id="Rectangle_669" data-name="Rectangle 669" width="11.729" height="3.91" rx="1.691" transform="translate(0 0.896)" fill="#fff"/>
      <rect id="Rectangle_670" data-name="Rectangle 670" width="11.729" height="3.91" rx="1.691" transform="translate(21.014 0.896)" fill="#fff"/>
      <rect id="Rectangle_671" data-name="Rectangle 671" width="11.729" height="3.91" rx="1.691" transform="translate(42.028 0.896)" fill="#fff"/>
      <rect id="Rectangle_672" data-name="Rectangle 672" width="51.884" height="5.701" rx="2.466" transform="translate(68.581)" fill="#fff"/>
      <ellipse id="Ellipse_66" data-name="Ellipse 66" cx="1.665" cy="1.665" rx="1.665" ry="1.665" transform="translate(160.583 1.43)" fill="#fff"/>
      <ellipse id="Ellipse_67" data-name="Ellipse 67" cx="1.665" cy="1.665" rx="1.665" ry="1.665" transform="translate(166.753 1.43)" fill="#fff"/>
      <ellipse id="Ellipse_68" data-name="Ellipse 68" cx="1.665" cy="1.665" rx="1.665" ry="1.665" transform="translate(172.923 1.43)" fill="#fff"/>
    </g>
    <g id="Group_1079" data-name="Group 1079" transform="translate(74.371 31.141)">
      <g id="Group_1066" data-name="Group 1066" transform="translate(0.005 21.266)">
        <path id="Path_4284" data-name="Path 4284" d="M284.028,254.261H277.27a2.432,2.432,0,0,0-2.431,2.432v6.758a2.432,2.432,0,0,0,2.431,2.431h6.758a2.432,2.432,0,0,0,2.431-2.431v-6.758A2.432,2.432,0,0,0,284.028,254.261Zm-.023,4.216-3.724,4.154-2.938-2.561a.579.579,0,1,1,.76-.872l2.078,1.811,2.962-3.3a.579.579,0,1,1,.862.773Z" transform="translate(-274.839 -254.255)" fill="#0c4194"/>
        <g id="Group_1065" data-name="Group 1065" transform="translate(17.491)">
          <g id="Group_1064" data-name="Group 1064">
            <g id="Group_1063" data-name="Group 1063">
              <path id="Path_4285" data-name="Path 4285" d="M309.382,265.885h-6.335a2.652,2.652,0,0,1-2.649-2.648V256.9a2.652,2.652,0,0,1,2.649-2.648h6.335a2.651,2.651,0,0,1,2.648,2.648v6.336A2.651,2.651,0,0,1,309.382,265.885Zm-6.335-10.894a1.913,1.913,0,0,0-1.911,1.911v6.336a1.913,1.913,0,0,0,1.911,1.911h6.335a1.913,1.913,0,0,0,1.911-1.911V256.9a1.913,1.913,0,0,0-1.911-1.911Z" transform="translate(-300.398 -254.253)" fill="#0c4194"/>
            </g>
          </g>
        </g>
      </g>
      <g id="Group_1070" data-name="Group 1070">
        <g id="Group_1069" data-name="Group 1069">
          <g id="Group_1068" data-name="Group 1068">
            <g id="Group_1067" data-name="Group 1067">
              <path id="Path_4286" data-name="Path 4286" d="M283.815,234.809h-6.336a2.651,2.651,0,0,1-2.648-2.648v-6.335a2.651,2.651,0,0,1,2.648-2.648h6.336a2.651,2.651,0,0,1,2.648,2.648v6.335A2.651,2.651,0,0,1,283.815,234.809Zm-6.336-10.9a1.913,1.913,0,0,0-1.911,1.911v6.335a1.912,1.912,0,0,0,1.911,1.911h6.336a1.912,1.912,0,0,0,1.91-1.911v-6.335a1.913,1.913,0,0,0-1.91-1.911Z" transform="translate(-274.831 -223.177)" fill="#0c4194"/>
            </g>
          </g>
        </g>
        <path id="Path_4287" data-name="Path 4287" d="M309.6,223.185h-6.758a2.432,2.432,0,0,0-2.431,2.432v6.757a2.432,2.432,0,0,0,2.431,2.432H309.6a2.432,2.432,0,0,0,2.431-2.432v-6.757A2.432,2.432,0,0,0,309.6,223.185Zm-.023,4.216-3.724,4.154-2.938-2.561a.579.579,0,1,1,.76-.873l2.078,1.811,2.962-3.3a.579.579,0,0,1,.862.773Z" transform="translate(-282.905 -223.18)" fill="#0c4194"/>
      </g>
      <g id="Group_1074" data-name="Group 1074" transform="translate(0.005 64.123)">
        <path id="Path_4288" data-name="Path 4288" d="M284.028,316.887H277.27a2.432,2.432,0,0,0-2.431,2.431v6.758a2.432,2.432,0,0,0,2.431,2.431h6.758a2.432,2.432,0,0,0,2.431-2.431v-6.758A2.432,2.432,0,0,0,284.028,316.887Zm-.023,4.215-3.724,4.155-2.938-2.561a.579.579,0,1,1,.76-.873l2.078,1.811,2.962-3.3a.579.579,0,0,1,.862.773Z" transform="translate(-274.839 -316.882)" fill="#0c4194"/>
        <g id="Group_1073" data-name="Group 1073" transform="translate(17.491)">
          <g id="Group_1072" data-name="Group 1072">
            <g id="Group_1071" data-name="Group 1071">
              <path id="Path_4289" data-name="Path 4289" d="M309.382,328.51h-6.335a2.652,2.652,0,0,1-2.649-2.648v-6.335a2.652,2.652,0,0,1,2.649-2.648h6.335a2.651,2.651,0,0,1,2.648,2.648v6.335A2.651,2.651,0,0,1,309.382,328.51Zm-6.335-10.894a1.914,1.914,0,0,0-1.911,1.911v6.335a1.914,1.914,0,0,0,1.911,1.911h6.335a1.913,1.913,0,0,0,1.911-1.911v-6.335a1.913,1.913,0,0,0-1.911-1.911Z" transform="translate(-300.398 -316.879)" fill="#0c4194"/>
            </g>
          </g>
        </g>
      </g>
      <g id="Group_1078" data-name="Group 1078" transform="translate(0 42.856)">
        <g id="Group_1077" data-name="Group 1077">
          <g id="Group_1076" data-name="Group 1076">
            <g id="Group_1075" data-name="Group 1075">
              <path id="Path_4290" data-name="Path 4290" d="M283.815,297.434h-6.336a2.65,2.65,0,0,1-2.648-2.648v-6.335a2.651,2.651,0,0,1,2.648-2.649h6.336a2.651,2.651,0,0,1,2.648,2.649v6.335A2.65,2.65,0,0,1,283.815,297.434Zm-6.336-10.894a1.912,1.912,0,0,0-1.911,1.911v6.335a1.913,1.913,0,0,0,1.911,1.911h6.336a1.913,1.913,0,0,0,1.91-1.911v-6.335a1.912,1.912,0,0,0-1.91-1.911Z" transform="translate(-274.831 -285.802)" fill="#0c4194"/>
            </g>
          </g>
        </g>
        <path id="Path_4291" data-name="Path 4291" d="M309.6,285.811h-6.758a2.432,2.432,0,0,0-2.431,2.431V295a2.432,2.432,0,0,0,2.431,2.431H309.6A2.432,2.432,0,0,0,312.028,295v-6.758A2.432,2.432,0,0,0,309.6,285.811Zm-.023,4.215-3.724,4.155-2.938-2.561a.579.579,0,1,1,.76-.873l2.078,1.811,2.962-3.3a.579.579,0,0,1,.862.773Z" transform="translate(-282.905 -285.805)" fill="#0c4194"/>
      </g>
    </g>
    <path id="Path_4292" data-name="Path 4292" d="M421.054,257.239l-7.99-4.261c.092-1.194.154-2.4.154-3.616a46.427,46.427,0,0,0-1.2-10.447,48.94,48.94,0,0,0,5.757-3.419,4.691,4.691,0,0,0,2.028-4.562c-.749-5.18-4.691-10.975-6.561-13.482a2.269,2.269,0,0,0-2.483-.814l-8.661,2.636a46.536,46.536,0,0,0-10.684-9.206,48.907,48.907,0,0,0,1.653-6.488,4.69,4.69,0,0,0-1.792-4.66c-4.192-3.134-11.077-4.443-14.172-4.894a2.27,2.27,0,0,0-2.331,1.18l-4.261,7.99c-1.195-.092-2.4-.154-3.616-.154a46.418,46.418,0,0,0-10.447,1.2,49.106,49.106,0,0,0-3.419-5.757,4.692,4.692,0,0,0-4.562-2.028c-5.181.749-10.974,4.691-13.483,6.561a2.269,2.269,0,0,0-.814,2.483l2.636,8.661a46.548,46.548,0,0,0-9.206,10.683,48.9,48.9,0,0,0-6.489-1.653,4.687,4.687,0,0,0-4.66,1.792c-3.134,4.192-4.443,11.077-4.894,14.172a2.27,2.27,0,0,0,1.18,2.332l7.989,4.261c-.092,1.195-.154,2.4-.154,3.616a46.427,46.427,0,0,0,1.2,10.447,49.046,49.046,0,0,0-5.757,3.419,4.689,4.689,0,0,0-2.028,4.562c.748,5.181,4.691,10.974,6.561,13.482a2.269,2.269,0,0,0,2.483.814l8.662-2.636a46.529,46.529,0,0,0,10.683,9.206,49,49,0,0,0-1.653,6.489,4.691,4.691,0,0,0,1.792,4.66c4.193,3.134,11.077,4.443,14.172,4.894a2.27,2.27,0,0,0,2.331-1.18l4.261-7.989c1.194.092,2.4.154,3.616.154a46.427,46.427,0,0,0,10.447-1.2,48.914,48.914,0,0,0,3.419,5.757,4.69,4.69,0,0,0,4.562,2.028c5.18-.749,10.974-4.691,13.482-6.561a2.27,2.27,0,0,0,.814-2.483l-2.636-8.661a46.566,46.566,0,0,0,9.206-10.683,49.02,49.02,0,0,0,6.488,1.653,4.69,4.69,0,0,0,4.66-1.792c3.134-4.193,4.443-11.078,4.894-14.173A2.268,2.268,0,0,0,421.054,257.239Zm-79.924-36.8a38.676,38.676,0,0,1,25.768-9.813c1.106,0,2.222.047,3.318.14a.855.855,0,0,1-.145,1.7c-1.047-.088-2.115-.133-3.173-.133a36.966,36.966,0,0,0-24.63,9.379.855.855,0,1,1-1.138-1.277Zm25.768-2.187a31.111,31.111,0,1,1-31.111,31.111A31.111,31.111,0,0,1,366.9,218.251Zm37.795,39.641a38.747,38.747,0,0,1-69.609,13.576.855.855,0,1,1,1.4-.978,37.036,37.036,0,0,0,66.536-12.974.855.855,0,1,1,1.669.376Z" transform="translate(-212.047 -182.826)" fill="#f5e5da"/>
    <rect id="Rectangle_673" data-name="Rectangle 673" width="21.765" height="0.977" rx="0.423" transform="translate(139.573 53.164)" fill="#fff"/>
    <rect id="Rectangle_674" data-name="Rectangle 674" width="26.224" height="0.977" rx="0.423" transform="translate(139.573 56.524)" fill="#fff"/>
    <rect id="Rectangle_675" data-name="Rectangle 675" width="11.367" height="0.977" rx="0.423" transform="translate(147.282 45.339)" fill="#fff"/>
    <rect id="Rectangle_676" data-name="Rectangle 676" width="11.367" height="0.977" rx="0.423" transform="translate(147.282 48.698)" fill="#fff"/>
    <rect id="Rectangle_677" data-name="Rectangle 677" width="26.224" height="0.977" rx="0.423" transform="translate(139.573 59.884)" fill="#fff"/>
    <g id="Group_1080" data-name="Group 1080" transform="translate(139.573 66.844)">
      <rect id="Rectangle_678" data-name="Rectangle 678" width="21.765" height="0.977" rx="0.423" transform="translate(0 8.37)" fill="#fff"/>
      <rect id="Rectangle_679" data-name="Rectangle 679" width="26.224" height="0.977" rx="0.423" transform="translate(0 11.73)" fill="#fff"/>
      <rect id="Rectangle_680" data-name="Rectangle 680" width="11.367" height="0.977" rx="0.423" transform="translate(7.709 0.545)" fill="#fff"/>
      <rect id="Rectangle_681" data-name="Rectangle 681" width="11.367" height="0.977" rx="0.423" transform="translate(7.709 3.905)" fill="#fff"/>
      <rect id="Rectangle_682" data-name="Rectangle 682" width="26.224" height="0.977" rx="0.423" transform="translate(0 15.09)" fill="#fff"/>
      <path id="Path_4293" data-name="Path 4293" d="M375.08,275.35h-2.99a1.076,1.076,0,0,0-1.076,1.076v2.99a1.076,1.076,0,0,0,1.076,1.076h2.99a1.076,1.076,0,0,0,1.076-1.076v-2.99A1.076,1.076,0,0,0,375.08,275.35Zm-.01,1.865-1.648,1.838-1.3-1.133a.256.256,0,0,1,.337-.386l.919.8,1.31-1.462a.256.256,0,0,1,.382.342Z" transform="translate(-370.396 -275.35)" fill="#fff"/>
    </g>
    <g id="Group_1081" data-name="Group 1081" transform="translate(140.191 44.794)">
      <rect id="Rectangle_683" data-name="Rectangle 683" width="5.141" height="5.141" rx="1.572" fill="#fff"/>
      <path id="Path_4294" data-name="Path 4294" d="M375.576,246.548v1.105h-.641v-1.031c0-.259-.092-.436-.325-.436a.349.349,0,0,0-.328.234.432.432,0,0,0-.021.156v1.076h-.641s.009-1.746,0-1.927h.641V246l0,.007h0V246a.636.636,0,0,1,.577-.318c.422,0,.738.276.738.867ZM372.95,244.8a.334.334,0,1,0-.008.666h0a.334.334,0,1,0,0-.666Zm-.324,2.856h.641v-1.927h-.641Zm0,0" transform="translate(-371.511 -243.655)" fill="#0069ad"/>
    </g>
    <g id="Group_1082" data-name="Group 1082" transform="translate(156.539 53.652)">
      <path id="Path_4295" data-name="Path 4295" d="M422.375,269.809a13.736,13.736,0,1,1-13.736-13.736,13.736,13.736,0,0,1,13.736,13.736Zm0,0" transform="translate(-394.902 -256.073)" fill="#0069ad"/>
      <path id="Path_4296" data-name="Path 4296" d="M419.9,273.622v5.663H416.62V274c0-1.327-.474-2.233-1.664-2.233a1.8,1.8,0,0,0-1.683,1.2,2.234,2.234,0,0,0-.108.8v5.515H409.88s.044-8.949,0-9.875h3.285v1.4c-.006.011-.016.022-.022.032h.022v-.032a3.26,3.26,0,0,1,2.959-1.632c2.16,0,3.779,1.412,3.779,4.444Zm-13.456-8.972a1.711,1.711,0,1,0-.043,3.412h.02a1.711,1.711,0,1,0,.023-3.412Zm-1.664,14.635h3.282v-9.875h-3.282Zm0,0" transform="translate(-397.96 -258.781)" fill="#efefef"/>
    </g>
    <g id="Group_1086" data-name="Group 1086" transform="translate(209.207 22.994)">
      <rect id="Rectangle_684" data-name="Rectangle 684" width="36.118" height="97.984" rx="12" fill="#fff"/>
      <g id="Group_1083" data-name="Group 1083" transform="translate(7.769 7.775)">
        <path id="Path_4297" data-name="Path 4297" d="M503.8,232.923a10.289,10.289,0,1,1-10.289-10.29A10.246,10.246,0,0,1,503.8,232.923Z" transform="translate(-483.22 -222.633)" fill="#eaedf5"/>
        <path id="Path_4298" data-name="Path 4298" d="M501.859,240.521a1.257,1.257,0,0,0-.172-.1l-.01-.006h0a21.838,21.838,0,0,0-4.387-1.657h0c-.474-.144-.831-.239-.955-.27l-.221-.352a10.84,10.84,0,0,1-.018-1.239,4.391,4.391,0,0,0,.885-2.134c.06.045.106-.053.106-.053-.034-.059.5-1.352.4-1.643-.054-.166-.164-.144-.25-.1.012-.075.026-.154.039-.237a4.546,4.546,0,0,0-.793-3.086,1.111,1.111,0,0,0-.474-.125,4.413,4.413,0,0,0-3.183-.014,3.2,3.2,0,0,0-.924,2.674c.018.163.036.327.055.487v0c.008.064.015.126.023.187-.084-.052-.194-.078-.255.086a4.928,4.928,0,0,0,.333,1.658s.084.132.151.072v0a4.742,4.742,0,0,0,.868,2.265c-.025.46-.092,1-.138,1.347l-.4.416h0l-.064.021v0c-4.5,1.2-5.776,2.039-5.776,2.039a1.183,1.183,0,0,0-.346.534,10.29,10.29,0,0,0,16.02.328A4.224,4.224,0,0,0,501.859,240.521Z" transform="translate(-484.211 -224.715)" fill="#6cb1e3"/>
      </g>
      <g id="Group_1084" data-name="Group 1084" transform="translate(6.348 36.675)">
        <rect id="Rectangle_685" data-name="Rectangle 685" width="12.258" height="0.977" rx="0.423" transform="translate(5.824)" fill="#6cb1e3"/>
        <rect id="Rectangle_686" data-name="Rectangle 686" width="19.507" height="0.977" rx="0.423" transform="translate(2.199 4.43)" fill="#6cb1e3"/>
        <rect id="Rectangle_687" data-name="Rectangle 687" width="23.906" height="0.977" rx="0.423" transform="translate(0 8.86)" fill="#6cb1e3"/>
        <rect id="Rectangle_688" data-name="Rectangle 688" width="12.258" height="0.977" rx="0.423" transform="translate(5.824 17.346)" fill="#6cb1e3"/>
        <rect id="Rectangle_689" data-name="Rectangle 689" width="19.507" height="0.977" rx="0.423" transform="translate(2.199 21.776)" fill="#6cb1e3"/>
        <rect id="Rectangle_690" data-name="Rectangle 690" width="23.906" height="0.977" rx="0.423" transform="translate(0 26.207)" fill="#6cb1e3"/>
        <rect id="Rectangle_691" data-name="Rectangle 691" width="12.258" height="0.977" rx="0.423" transform="translate(5.824 34.692)" fill="#6cb1e3"/>
        <rect id="Rectangle_692" data-name="Rectangle 692" width="19.507" height="0.977" rx="0.423" transform="translate(2.199 39.123)" fill="#6cb1e3"/>
        <rect id="Rectangle_693" data-name="Rectangle 693" width="23.906" height="0.977" rx="0.423" transform="translate(0 43.553)" fill="#6cb1e3"/>
      </g>
      <g id="Group_1085" data-name="Group 1085" transform="translate(7.8 9.339)">
        <path id="Path_4299" data-name="Path 4299" d="M503.519,235.045a10.127,10.127,0,1,1-10.127-10.127,10.128,10.128,0,0,1,10.127,10.127Zm0,0" transform="translate(-483.264 -224.918)" fill="#0069ad"/>
        <path id="Path_4300" data-name="Path 4300" d="M501.7,237.857v4.175h-2.42v-3.9c0-.978-.349-1.647-1.226-1.647a1.325,1.325,0,0,0-1.241.886,1.636,1.636,0,0,0-.08.589v4.066h-2.421s.032-6.6,0-7.281h2.421v1.032c0,.008-.012.016-.016.024h.016v-.024a2.4,2.4,0,0,1,2.182-1.2c1.593,0,2.787,1.041,2.787,3.277Zm-9.921-6.615a1.261,1.261,0,1,0-.032,2.516h.015a1.262,1.262,0,1,0,.016-2.516Zm-1.226,10.79h2.42v-7.281h-2.42Zm0,0" transform="translate(-485.518 -226.914)" fill="#efefef"/>
      </g>
    </g>
    <g id="Group_1091" data-name="Group 1091" transform="translate(191.415 95.387)">
      <path id="Path_4301" data-name="Path 4301" d="M505.2,317.194c-2.774-1.326-5.533,7.5-5.533,7.5-4.714,6.229-11.3-2.058-10.658,7.253,1.127,16.293-18.754,5.124-9.582,22.135s-8.1,9.618-2.4,23.334-1.687,30.075,6.889,23.353c0,0,7.552-16.56,15.339-21.684s-4.665-11.2-2.229-18.162c3.539-10.107,12.067-9.711,5.918-20.573S514.628,321.7,505.2,317.194Z" transform="translate(-455.33 -317.059)" fill="url(#linear-gradient-6)"/>
      <g id="Group_1087" data-name="Group 1087" transform="translate(25.517 17.274)">
        <path id="Path_4302" data-name="Path 4302" d="M483.508,402.509c3.718-2.615,8.069-20.834,8.328-31.686.133-5.559,1.776-7.875,3.226-9.919,1.386-1.953,2.583-3.64,1.885-7.513-1.332-7.4,2.171-10.6,2.206-10.628l-.406-.462c-.156.136-3.8,3.431-2.405,11.2.651,3.619-.422,5.132-1.782,7.049-1.426,2.01-3.2,4.512-3.339,10.259-.279,11.647-4.727,28.849-8.068,31.2Z" transform="translate(-483.154 -342.301)" fill="#fff"/>
      </g>
      <g id="Group_1088" data-name="Group 1088" transform="translate(0 42.336)">
        <path id="Path_4303" data-name="Path 4303" d="M463.945,408.755c-.351-.8-.714-1.618-1.125-2.486-2.124-4.483-4-5.221-7.122-6.444-.761-.3-1.625-.638-2.572-1.063-4.465-2.006-3.6-4.963-2.837-7.572.107-.365.213-.729.305-1.089.393-1.534-.361-2.3-1.5-3.47a13.011,13.011,0,0,1-2.72-3.645c-.891-1.863-.437-2.862.1-3.372,1.133-1.074,3.744-.876,6.21.47h0a8.979,8.979,0,0,1,2.065,1.777,10.225,10.225,0,0,0,8.475,3.718c2.822.013,4.367.4,5.167,1.3.909,1.02.737,2.548.5,4.663-.082.732-.175,1.56-.231,2.456a14.33,14.33,0,0,0,2.849,9.236c1.885,2.245,4.207,6.9,3.2,9.767a3.43,3.43,0,0,1-2.792,2.247,7.939,7.939,0,0,1-1.572.17C466.886,415.42,465.619,412.55,463.945,408.755Zm-11.558-28.131c-2.2-1.2-4.564-1.445-5.492-.564-.706.669-.373,1.816.031,2.66a12.311,12.311,0,0,0,2.6,3.48c1.195,1.219,2.138,2.182,1.659,4.053-.094.366-.2.737-.311,1.109-.76,2.6-1.477,5.052,2.5,6.839.933.419,1.789.755,2.545,1.052,3.146,1.235,5.225,2.05,7.452,6.754.415.875.779,1.7,1.132,2.5,1.924,4.359,3.084,6.99,7.289,6.14a2.853,2.853,0,0,0,2.334-1.847c.883-2.526-1.23-6.947-3.1-9.169a14.681,14.681,0,0,1-2.992-9.669c.058-.911.151-1.747.234-2.486.219-1.956.378-3.37-.348-4.185-.664-.746-2.117-1.084-4.71-1.1-5.209-.024-7.266-2.178-8.918-3.908a8.4,8.4,0,0,0-1.914-1.662Z" transform="translate(-445.866 -378.924)" fill="url(#linear-gradient-7)"/>
      </g>
      <g id="Group_1089" data-name="Group 1089" transform="translate(4.768 47.246)">
        <path id="Path_4304" data-name="Path 4304" d="M474.051,421.234l.615-.032c-.03-.577-.8-14.174-6.264-18.154a21.847,21.847,0,0,1-8.777-12.206c-1.06-3.711-6.454-4.7-6.682-4.743l-.107.606c.053.009,5.245.966,6.2,4.306a22.436,22.436,0,0,0,9.006,12.534C473.264,407.354,474.044,421.1,474.051,421.234Z" transform="translate(-452.834 -386.099)" fill="url(#linear-gradient-8)"/>
      </g>
      <path id="Path_4305" data-name="Path 4305" d="M463.548,337.236c3.881-1.33,3.075,6.149,4.714,11.682s18.241,2.414,11.272,16.271,8.813,4.634,4.1,16.726-.41,25.024-5.534,21.735-2.879-18.516-8.207-20.326-6.2-3.92-.922-8.839-13.825-9.8-9.111-19.734S459.065,338.774,463.548,337.236Z" transform="translate(-450.045 -323.379)" fill="url(#linear-gradient-9)"/>
      <g id="Group_1090" data-name="Group 1090" transform="translate(15.454 31.203)">
        <path id="Path_4306" data-name="Path 4306" d="M478.672,411.144c.488-2.07,4.655-20.287.767-22.489-3.428-1.941-3.343-9.49-2.808-16.618.474-6.309-7.631-9.259-7.976-9.381l-.206.58c.081.029,8.007,2.915,7.569,8.756-.549,7.321-.608,15.089,3.118,17.2,2.953,1.672.234,16.312-1.063,21.812Z" transform="translate(-468.449 -362.655)" fill="#fff"/>
      </g>
      <path id="Path_4307" data-name="Path 4307" d="M493.959,424.032l-5.54,21.018H476.038l-5.54-21.018Z" transform="translate(-453.642 -350.827)" fill="url(#linear-gradient-10)"/>
      <path id="Path_4308" data-name="Path 4308" d="M493.959,424.032s-12.2,2.29-12.2,21.018h-5.724l-5.54-21.018Z" transform="translate(-453.642 -350.827)" fill="#002f4d" opacity="0.37"/>
    </g>
    <g id="Group_1102" data-name="Group 1102" transform="translate(222.181 24.596)">
      <g id="Group_1093" data-name="Group 1093" transform="translate(30.081)">
        <g id="Group_1092" data-name="Group 1092">
          <path id="Path_4309" data-name="Path 4309" d="M538.908,235.066c-.041-.557.144-1.224-.268-1.6-.437-.4-1.155-.1-1.723-.279a1.437,1.437,0,0,1-.857-1.537,4.2,4.2,0,0,1,.74-1.738,1.779,1.779,0,0,1-.277-3.543,5.063,5.063,0,0,1-1.626-1.977,1.743,1.743,0,0,1,.775-2.206,2.369,2.369,0,0,0,.843-.337,1.059,1.059,0,0,0-.021-1.26,2.711,2.711,0,0,1-.552-1.225,1.315,1.315,0,0,1,1.089-1.18,3.847,3.847,0,0,1,1.718.143,6.058,6.058,0,0,1,.471-1.805,2.058,2.058,0,0,1,1.384-1.163,1.261,1.261,0,0,1,1.457.862,3.082,3.082,0,0,1,1.332-2.235,2.31,2.31,0,0,1,2.532.017,1.856,1.856,0,0,1,.524,2.386,3.989,3.989,0,0,1,2.392-1.443,2.48,2.48,0,0,1,2.47,1.069,1.817,1.817,0,0,1-.618,2.471,1.953,1.953,0,1,1,2.589,2.908,1.86,1.86,0,0,1-.082,3.537A4.823,4.823,0,0,1,555.784,227a1.968,1.968,0,0,1-1.023,2.759,2.3,2.3,0,0,1-1.228,4.14,1.041,1.041,0,0,1-.054,1.463,2.452,2.452,0,0,1-1.5.591,5.681,5.681,0,0,0-1.61.3,6.5,6.5,0,0,0-1.159.781,6.311,6.311,0,0,1-5.839.678,14.591,14.591,0,0,0-2.362-.985C540.062,236.536,538.995,236.238,538.908,235.066Z" transform="translate(-534.782 -213.613)" fill="#0c4194"/>
          <path id="Path_4310" data-name="Path 4310" d="M552.248,232.9l-.672-3.344a5.592,5.592,0,0,0-5.031-4.241,5.909,5.909,0,0,0-3.94,2.754,4.968,4.968,0,0,0-.553,1.487l-.671,3.343c.058-.291-1.5-.562-1.714-.445-.512.276-.348,1.038-.261,1.491.2,1.019,1.4,1.489,1.547,2.558.122.916,1.551,4.75,4.686,5.46h2.351c3.134-.71,4.563-4.543,4.686-5.46.14-1.044,1.284-1.46,1.512-2.41.11-.459.317-1.3-.188-1.618C553.772,232.337,552.187,232.6,552.248,232.9Z" transform="translate(-536.212 -217.305)" fill="#ea3934"/>
        </g>
        <path id="Path_4311" data-name="Path 4311" d="M544.745,245.72a8.427,8.427,0,0,1-.33,4.226s-.8,4,3.29,4.176a3.663,3.663,0,0,0,4.186-3.487s-.979-1.315-.326-4.891S544.745,245.72,544.745,245.72Z" transform="translate(-537.803 -223.253)" fill="#ea3934"/>
      </g>
      <path id="Path_4312" data-name="Path 4312" d="M587.658,219.469h-17.57v15.417l2.682-2.682h14.888Z" transform="translate(-515.846 -215.462)" fill="#8ba1d3"/>
      <g id="Group_1094" data-name="Group 1094" transform="translate(51.669 133.817)">
        <path id="Path_4313" data-name="Path 4313" d="M571.007,409.16s1.35.964,2.1,1.638a7.044,7.044,0,0,1,2.389,3.132,2.154,2.154,0,0,1-2.051,3.1c-1.688.1-4.275-1.172-4.527-2.717-.25-1.53-2.232-1.35-2.491-2.439a5.955,5.955,0,0,1,.087-2.429Z" transform="translate(-566.329 -409.16)" fill="#002f4d"/>
      </g>
      <g id="Group_1096" data-name="Group 1096" transform="translate(51.852 132.552)">
        <g id="Group_1095" data-name="Group 1095">
          <path id="Path_4314" data-name="Path 4314" d="M570.867,407.311l.224,1.265s-.7,1.287-4.5.285l.2-1.247Z" transform="translate(-566.596 -407.311)" fill="#ca3828"/>
        </g>
      </g>
      <path id="Path_4315" data-name="Path 4315" d="M566.6,409.432s.856.113,1.466.209,1.818-.684,3.029-.494l-.373,1.539S566.681,409.929,566.6,409.432Z" transform="translate(-514.744 -275.329)" fill="#16777b"/>
      <g id="Group_1097" data-name="Group 1097" transform="translate(27.42 133.817)">
        <path id="Path_4316" data-name="Path 4316" d="M535.571,409.16s-1.35.964-2.1,1.638a7.045,7.045,0,0,0-2.389,3.132,2.154,2.154,0,0,0,2.052,3.1c1.687.1,4.275-1.172,4.527-2.717.25-1.53,2.233-1.35,2.491-2.439a5.955,5.955,0,0,0-.087-2.429Z" transform="translate(-530.893 -409.16)" fill="#002f4d"/>
      </g>
      <g id="Group_1099" data-name="Group 1099" transform="translate(32.098 132.552)">
        <g id="Group_1098" data-name="Group 1098">
          <path id="Path_4317" data-name="Path 4317" d="M537.954,407.311l-.225,1.265s.7,1.287,4.5.285l-.2-1.247Z" transform="translate(-537.729 -407.311)" fill="#ca3828"/>
        </g>
      </g>
      <g id="Group_1100" data-name="Group 1100" transform="translate(29.256 62.539)">
        <path id="Path_4318" data-name="Path 4318" d="M535.023,345.512c0,2.781,1.1,29.234,1.1,29.234.279.927,4.046.879,4.973.415s.765-26.486.936-29.29,2.425-23.438,3.238-23.345,5.41,19.529,6.058,21.662,4.39,30.958,4.39,30.958a6.855,6.855,0,0,0,5.226,0s-1.212-29.059-1.213-32.51c0-1.28-.379-2.249-.74-9.058-.276-5.189-1.721-15.824-2.688-23.141-.034-.26-.067-.511-.1-.75-.189-1.424-.331-2.47-.4-2.972-.03-.217-.046-.333-.046-.333q-.391-.18-.816-.333c-6.791-2.44-19.888.142-19.888.142l-.022.185c-.018.147-.045.378-.08.676-.075.645-.188,1.606-.317,2.721l0,.025c0,.033-.008.068-.012.1-.457,3.968-.683,6.148-1.042,10.383C533.5,321.212,535.023,342.731,535.023,345.512Z" transform="translate(-533.577 -305.001)" fill="#002f4d"/>
      </g>
      <g id="Group_1101" data-name="Group 1101" transform="translate(0 39.166)">
        <path id="Path_4319" data-name="Path 4319" d="M495.807,273.769s-4.118-2.972-4.557-2.922-.585.3-.212.6,3.9,3,3.9,3a30.044,30.044,0,0,0-2.927-1.342c-.214-.025-.525.444-.339.622s2.548,1.787,2.548,1.787a13.82,13.82,0,0,0-2.523-1.054.425.425,0,0,0-.1.766c.366.209,2.074,1.436,2.074,1.436s-1.373-.634-1.618-.415c-.151.134-.436.526.564.888s.812.584.812.584Z" transform="translate(-490.825 -270.846)" fill="#ea3934"/>
        <path id="Path_4320" data-name="Path 4320" d="M501.951,277.642s-2.062-.576-1.935-1.425a7.38,7.38,0,0,0-.211-2.422c-.128-.5.025-2.206-.578-2.021s-.38,2.805-.437,3.368-1.717-1.195-2.268-1.256-3.242,3.1-1.967,4.168,3.33,1.285,3.517,1.521A15.337,15.337,0,0,0,500,280.7Z" transform="translate(-491.895 -271.134)" fill="#ea3934"/>
        <path id="Path_4321" data-name="Path 4321" d="M519.257,284.888c-4.887-.819-16.607-6.843-16.607-6.843s-2.566,4.764-2.137,4.7c.39-.055,12.864,6.767,16.342,7.9a.433.433,0,0,0,.556-.341,32.676,32.676,0,0,1,1.859-5.413Z" transform="translate(-493.868 -273.119)" fill="#0c4194"/>
      </g>
      <path id="Path_4322" data-name="Path 4322" d="M562.877,277.873c.062-1.05-7.138-21.457-9.49-22.526-3.385-1.538-12.238-3.955-12.238-3.955l-4.456.482s-11.121,2.361-12.048,5.451-2.725,10.34-5.227,18.229c1.774.266,1.885,5.121,3.371,6.495a.432.432,0,0,0,.7-.188c.872-2.554,4.786-14.028,4.786-14.028s1.473,16.408,1.473,18.943-.168,7.666-.168,7.666,4.121,1.579,12.123,1.161c0,0,12.735-.437,10.562-4.319-.647-1.157-.883-4.922-.916-9.068-3.139.976-5.693,1.722-5.693,1.722-1.785-2.8-1.449-4.041-1.449-4.041s3.855-1.288,7.183-2.581a84.807,84.807,0,0,1,.486-8.837c.247-.124,4.687,5.437,4.254,6.508-.182.45-2.323,1.391-4.74,2.329-.037,1.6-.054,3.279-.041,4.9C556.347,280.661,562.839,278.519,562.877,277.873Z" transform="translate(-499.851 -225.539)" fill="#0c4194"/>
      <path id="Path_4323" data-name="Path 4323" d="M562.808,289.277c-3.328,1.293-7.183,2.581-7.183,2.581s-.335,1.238,1.449,4.041c0,0,2.554-.747,5.693-1.722C562.754,292.556,562.771,290.881,562.808,289.277Z" transform="translate(-511.273 -237.499)" fill="#0c4194"/>
      <path id="Path_4324" data-name="Path 4324" d="M542.224,409.432s-.856.113-1.466.209-1.817-.684-3.03-.494l.373,1.539S542.139,409.929,542.224,409.432Z" transform="translate(-505.631 -275.329)" fill="#16777b"/>
      <rect id="Rectangle_694" data-name="Rectangle 694" width="16.847" height="25.37" transform="translate(60.141 60.532) rotate(163.811)" fill="#6cb1e3"/>
      <path id="Path_4325" data-name="Path 4325" d="M550.523,292.758s-1.056-.029-1.38-.075-.11.641.266.771S550.523,292.758,550.523,292.758Z" transform="translate(-509.185 -238.573)" fill="#ea3934"/>
      <path id="Path_4326" data-name="Path 4326" d="M549.806,297.8a2.16,2.16,0,0,0,.687.063s.4-.122.7-.191a2.12,2.12,0,0,1,.227-.043,3.965,3.965,0,0,0,1.245-.209c.523-.2,2.3-1.113,2.3-1.113l-.507-1.648-.382-1.306a18.6,18.6,0,0,0-3.505-.663c-.049.014-.1.029-.143.046a5.033,5.033,0,0,0-.878.554c-.077.04-.819.485-.858.741a.844.844,0,0,0,.235.787,2.017,2.017,0,0,0,.184,1.1,1.257,1.257,0,0,0,.372,1.044S549.457,297.621,549.806,297.8Z" transform="translate(-509.085 -238.571)" fill="#ea3934"/>
      <path id="Path_4327" data-name="Path 4327" d="M555.634,284.027a6.209,6.209,0,0,0,1.449,4.041s12.6-3.932,14.1-4.523-5.455-19.074-5.455-19.074l-5.117,1.742,2.75,5.2s1.361,2.912,4.192,7.7C567.557,279.117,565.816,280.771,555.634,284.027Z" transform="translate(-511.282 -229.668)" fill="#0c4194"/>
      <path id="Path_4328" data-name="Path 4328" d="M559.455,285.116a2.152,2.152,0,1,0,2.123-2.5A2.337,2.337,0,0,0,559.455,285.116Z" transform="translate(-512.49 -235.394)" fill="#0069ad"/>
      <path id="Path_4329" data-name="Path 4329" d="M542.669,254.131l1.163-3.665s1.872.87,7.3.267l1.232,3.507A7.46,7.46,0,0,1,542.669,254.131Z" transform="translate(-507.191 -225.247)" fill="#0c4194"/>
    </g>
    <path id="Path_4330" data-name="Path 4330" d="M368.374,317.587a.887.887,0,0,0-1.118.57l-2.415,7.445H347.533l2.238-6.9a.887.887,0,1,0-1.687-.547l-2.59,7.983c-.01.025-.016.052-.025.078l-3.523,10.86c-.009.021-.014.044-.021.066l-3.52,10.851a.87.87,0,0,0-.061.188l-10.577,32.6a.884.884,0,0,0-.055.17l-6.864,21.155h1.865l2.97-9.154H342.99l-2.97,9.154h1.865l3.142-9.687a.83.83,0,0,0,.044-.137l10.593-32.65a.814.814,0,0,0,.033-.1L368.944,318.7A.886.886,0,0,0,368.374,317.587Zm-24.808,73.594H326.258l2.97-9.155h17.308Zm3.546-10.929H329.8l2.969-9.154h17.309Zm3.545-10.927H333.348l2.97-9.155h17.309ZM354.2,358.4H336.894l2.97-9.154h17.309Zm3.546-10.928H340.439l2.97-9.154h17.309Zm3.546-10.929H343.985l2.973-9.163h17.309Z" transform="translate(-214.986 -221.825)" fill="#0069ad"/>
    <g id="Group_1110" data-name="Group 1110" transform="translate(127.321 45.658)">
      <g id="Group_1105" data-name="Group 1105" transform="translate(32.574 65.922)">
        <path id="Path_4331" data-name="Path 4331" d="M399.807,341.72l3.16,1.212.418-1.426-3.1-.784Z" transform="translate(-399.807 -340.722)" fill="#f7a67d"/>
        <g id="Group_1104" data-name="Group 1104" transform="translate(1.317 0.598)">
          <path id="Path_4332" data-name="Path 4332" d="M404.807,341.995a27.634,27.634,0,0,1-1.668,5.8,1.955,1.955,0,0,1-1.348-2.431,1.194,1.194,0,0,1,.044-.168c.018-.089.044-.177.071-.266a.963.963,0,0,1,.062-.168,2.518,2.518,0,0,1,.106-.275,1.246,1.246,0,0,1,.071-.159,7.11,7.11,0,0,1,.79-1.313,1.306,1.306,0,0,0,.328-1.419Z" transform="translate(-401.731 -341.596)" fill="#0069ad"/>
          <g id="Group_1103" data-name="Group 1103" transform="translate(0.059 2.732)">
            <path id="Path_4333" data-name="Path 4333" d="M402.509,346.947a.087.087,0,0,1-.088.079h-.6a1.187,1.187,0,0,1,.044-.168h.559A.1.1,0,0,1,402.509,346.947Z" transform="translate(-401.818 -345.989)" fill="#fff"/>
            <path id="Path_4334" data-name="Path 4334" d="M402.687,346.3a.089.089,0,0,1-.089.088h-.612a.966.966,0,0,1,.062-.168h.55A.088.088,0,0,1,402.687,346.3Z" transform="translate(-401.871 -345.788)" fill="#fff"/>
            <path id="Path_4335" data-name="Path 4335" d="M402.888,345.668a.081.081,0,0,1-.088.079h-.568a1.247,1.247,0,0,1,.071-.159h.5A.082.082,0,0,1,402.888,345.668Z" transform="translate(-401.949 -345.588)" fill="#fff"/>
          </g>
        </g>
      </g>
      <path id="Path_4336" data-name="Path 4336" d="M378.6,304.475l-4.372,9.219s-1.394,15.016,18.184,17.107l.476-1.615s-10.309-6.495-11.094-8.9,2.509-12.038-1.926-15.4Z" transform="translate(-359.153 -263.358)" fill="#002f4d"/>
      <g id="Group_1108" data-name="Group 1108" transform="translate(6.736 75.521)">
        <path id="Path_4337" data-name="Path 4337" d="M368.1,355.058,368,358h1.307l-.333-3.255Z" transform="translate(-363.93 -354.749)" fill="#f7a67d"/>
        <g id="Group_1107" data-name="Group 1107" transform="translate(0 2.946)">
          <path id="Path_4338" data-name="Path 4338" d="M367.594,359.17v1.384l-5.544.018.116-.976c.168-.3.86-.443,1.694-.506.053,0,.116-.009.168-.009.089-.009.187-.009.275-.009a1.125,1.125,0,0,1,.169-.009,2.647,2.647,0,0,1,.265,0,1.079,1.079,0,0,1,.169-.009C366.255,359.046,367.594,359.17,367.594,359.17Z" transform="translate(-362.05 -359.054)" fill="#0069ad"/>
          <g id="Group_1106" data-name="Group 1106" transform="translate(1.809 0)">
            <path id="Path_4339" data-name="Path 4339" d="M364.862,359.094v.435a.079.079,0,0,1-.079.08.088.088,0,0,1-.089-.08V359.1C364.747,359.1,364.81,359.094,364.862,359.094Z" transform="translate(-364.694 -359.067)" fill="#fff"/>
            <path id="Path_4340" data-name="Path 4340" d="M365.511,359.068v.452a.088.088,0,0,1-.089.08.08.08,0,0,1-.08-.08v-.443A1.128,1.128,0,0,1,365.511,359.068Z" transform="translate(-364.899 -359.059)" fill="#fff"/>
            <path id="Path_4341" data-name="Path 4341" d="M366.146,359.055v.461a.08.08,0,0,1-.08.08.088.088,0,0,1-.089-.08v-.452A1.078,1.078,0,0,1,366.146,359.055Z" transform="translate(-365.099 -359.055)" fill="#fff"/>
          </g>
        </g>
      </g>
      <path id="Path_4342" data-name="Path 4342" d="M356.435,258.656l-1.187-1.137a45.449,45.449,0,0,0,1.711-9.693l2.5-1.378.467-1.536s-.618-.294-.879-.175a1.8,1.8,0,0,0-2.59.5s-4.063,11.412-4.252,13.25l1.045,1.521s.277.309.717.779A20.238,20.238,0,0,0,356.435,258.656Z" transform="translate(-352.207 -244.39)" fill="#f7a67d"/>
      <path id="Path_4343" data-name="Path 4343" d="M365.969,271.291l-7.246-4.64-1.475-1.413a20.248,20.248,0,0,1-2.466,2.129c1.464,1.567,4.818,5.006,6.474,5.493l4.942-1.521,1.33-3.738Z" transform="translate(-353.02 -250.971)" fill="#8e4d98"/>
      <path id="Path_4344" data-name="Path 4344" d="M366.246,304.475s-5.132,6.843-2.566,19.483,2.566,15.967,2.566,15.967h1.616s1.711-10.264.57-19.1c0,0,6.114-6.621,5.607-14.794Z" transform="translate(-355.602 -263.358)" fill="#003856"/>
      <path id="Path_4345" data-name="Path 4345" d="M377.84,277.116l-11.468,4.752.338,14.96c7.73,4.625,12,.929,12,.929l-.869-11.581c.889.469,2.691,2.9,4.559,5.692a16.681,16.681,0,0,0,2.83-1.847A110.653,110.653,0,0,0,377.84,277.116Z" transform="translate(-356.678 -254.721)" fill="#8e4d98"/>
      <path id="Path_4346" data-name="Path 4346" d="M399.584,307.368c-.792-1.489-3.453-2.059-3.453-2.059a49.7,49.7,0,0,0-3.509-9.333,16.689,16.689,0,0,1-2.83,1.847c2.929,4.376,6.022,9.64,6.022,9.64a3.959,3.959,0,0,1,2.154,1.141C400.218,308.951,399.584,307.368,399.584,307.368Z" transform="translate(-364.072 -260.674)" fill="#f7a67d"/>
      <path id="Path_4347" data-name="Path 4347" d="M362.3,277.2c-4.467-6.336,6.051-7.223,6.557-13.686,0,0,1.014-5.386,6.653-4.5s1.187,21.655-4.95,20.619C366.856,279.011,366.956,276,362.3,277.2Z" transform="translate(-355.045 -248.976)" fill="#002f4d"/>
      <g id="Group_1109" data-name="Group 1109" transform="translate(1.177 0.424)">
        <path id="Path_4348" data-name="Path 4348" d="M366.383,246.534a.921.921,0,0,1-.06-.309A.921.921,0,0,0,366.383,246.534Z" transform="translate(-357.84 -245.394)" fill="none"/>
        <path id="Path_4349" data-name="Path 4349" d="M366.761,245.01a1.265,1.265,0,0,0-.376.57A1.265,1.265,0,0,1,366.761,245.01Z" transform="translate(-357.86 -245.01)" fill="none"/>
        <path id="Path_4350" data-name="Path 4350" d="M362.936,245.843h-7.477v.57h7.495a.823.823,0,0,1-.018-.57Z" transform="translate(-354.411 -245.273)" fill="#f7a67d"/>
        <path id="Path_4351" data-name="Path 4351" d="M362.936,245.58a1.266,1.266,0,0,1,.376-.57h-7.853v.57Z" transform="translate(-354.411 -245.01)" fill="#522815"/>
        <path id="Path_4352" data-name="Path 4352" d="M355.459,246.676v.571h7.905a1.326,1.326,0,0,1-.411-.571Z" transform="translate(-354.411 -245.536)" fill="#522815"/>
        <path id="Path_4353" data-name="Path 4353" d="M369.087,245.865l-2.2-.855h-.13a1.265,1.265,0,0,0-.376.57Z" transform="translate(-357.86 -245.01)" fill="#b1b2b2"/>
        <path id="Path_4354" data-name="Path 4354" d="M366.411,246.545a1.326,1.326,0,0,0,.411.571h.078l2.2-.855Z" transform="translate(-357.868 -245.405)" fill="#b1b2b2"/>
        <path id="Path_4355" data-name="Path 4355" d="M366.822,247.247a1.326,1.326,0,0,1-.411-.571A1.326,1.326,0,0,0,366.822,247.247Z" transform="translate(-357.868 -245.536)" fill="#866638"/>
        <path id="Path_4356" data-name="Path 4356" d="M366.323,246.1a.92.92,0,0,0,.06.309l2.684-.285-2.7-.285A.911.911,0,0,0,366.323,246.1Z" transform="translate(-357.84 -245.273)" fill="#e5e4e4"/>
        <path id="Path_4357" data-name="Path 4357" d="M353.927,245.477v.776a.549.549,0,0,0,.6.467h.445V245.01h-.445A.548.548,0,0,0,353.927,245.477Z" transform="translate(-353.927 -245.01)" fill="#003d66"/>
      </g>
      <path id="Path_4358" data-name="Path 4358" d="M359.932,244.411s1.651-.144,2.154.5c.287.37-.688.331-.688.331a6.544,6.544,0,0,0-2.358-.428Z" transform="translate(-354.364 -244.393)" fill="#f7a67d"/>
    </g>
    <g id="Group_1125" data-name="Group 1125" transform="translate(31.66 110.886)">
      <g id="Group_1111" data-name="Group 1111" transform="translate(40.973 17.098)">
        <path id="Path_4359" data-name="Path 4359" d="M299.278,414.032c-3.589-29.424-16.277-40.578-16.4-40.687l.707-.829c.534.455,13.132,11.493,16.778,41.383Z" transform="translate(-275.632 -367.163)" fill="#3166af"/>
        <ellipse id="Ellipse_69" data-name="Ellipse 69" cx="6.069" cy="3.034" rx="6.069" ry="3.034" transform="matrix(0.869, -0.495, 0.495, 0.869, 0, 6.005)" fill="#3166af"/>
        <ellipse id="Ellipse_70" data-name="Ellipse 70" cx="2.17" cy="1.085" rx="2.17" ry="1.085" transform="matrix(0.869, -0.495, 0.495, 0.869, 4.353, 5.77)" fill="#0a0e2f"/>
      </g>
      <g id="Group_1112" data-name="Group 1112" transform="translate(33.705 0)">
        <path id="Path_4360" data-name="Path 4360" d="M322.154,417.857c-8.345-46.622-37.838-64.294-38.135-64.467l1.644-1.313c1.243.721,30.528,18.208,39.005,65.569Z" transform="translate(-268.725 -343.613)" fill="#3166af"/>
        <ellipse id="Ellipse_71" data-name="Ellipse 71" cx="13.286" cy="5.105" rx="13.286" ry="5.105" transform="translate(0 8.113) rotate(-17.777)" fill="#3166af"/>
        <ellipse id="Ellipse_72" data-name="Ellipse 72" cx="4.75" cy="1.825" rx="4.75" ry="1.825" transform="translate(9.13 8.63) rotate(-17.777)" fill="#0a0e2f"/>
      </g>
      <g id="Group_1117" data-name="Group 1117" transform="translate(0 18.094)">
        <g id="Group_1114" data-name="Group 1114" transform="translate(0 32.447)">
          <path id="Path_4361" data-name="Path 4361" d="M245.419,414.056c16.052-4.433,24.631,22.461,24.631,22.461s-18.46,14.072-34.375,9.169-23.257-26.923-23.257-26.923S224.975,419.7,245.419,414.056Z" transform="translate(-212.418 -413.563)" fill="url(#linear-gradient-11)"/>
          <g id="Group_1113" data-name="Group 1113" transform="translate(11.914 6.038)">
            <rect id="Rectangle_695" data-name="Rectangle 695" width="0.818" height="47.011" transform="translate(0 5.959) rotate(-76.025)" fill="#fff"/>
            <path id="Path_4362" data-name="Path 4362" d="M233.222,437.425l-.54-.613,7.247-6.4-4.232-7.628.715-.4,4.55,8.2Z" transform="translate(-230.729 -422.386)" fill="#fff"/>
            <path id="Path_4363" data-name="Path 4363" d="M242.084,439.776l-.54-.613,7.248-6.4-4.233-7.628.715-.4,4.551,8.2Z" transform="translate(-233.526 -423.128)" fill="#fff"/>
            <path id="Path_4364" data-name="Path 4364" d="M250.945,442.126l-.54-.613,7.248-6.4-4.233-7.629.715-.4,4.551,8.2Z" transform="translate(-236.323 -423.87)" fill="#fff"/>
            <path id="Path_4365" data-name="Path 4365" d="M259.806,444.476l-.54-.613,7.248-6.4-4.232-7.628.715-.4,4.55,8.2Z" transform="translate(-239.12 -424.611)" fill="#fff"/>
            <path id="Path_4366" data-name="Path 4366" d="M268.668,446.825l-.54-.613,7.247-6.4-4.232-7.628.715-.4,4.55,8.2Z" transform="translate(-241.918 -425.353)" fill="#fff"/>
          </g>
        </g>
        <g id="Group_1116" data-name="Group 1116" transform="translate(21.118)">
          <path id="Path_4367" data-name="Path 4367" d="M275.417,386.027c14.525,8.146,1.7,33.292,1.7,33.292s-23.019-2.992-30.876-17.675,2.423-35.495,2.423-35.495S256.92,375.653,275.417,386.027Z" transform="translate(-243.278 -366.149)" fill="url(#linear-gradient-12)"/>
          <g id="Group_1115" data-name="Group 1115" transform="translate(4.445 12.757)">
            <rect id="Rectangle_696" data-name="Rectangle 696" width="0.816" height="47.011" transform="matrix(0.854, -0.52, 0.52, 0.854, 4.619, 0.456)" fill="#fff"/>
            <path id="Path_4368" data-name="Path 4368" d="M260.083,394.041l-10.311-.589.047-.815,9.656.551,2.361-8.4.786.221Z" transform="translate(-249.772 -384.79)" fill="#fff"/>
            <path id="Path_4369" data-name="Path 4369" d="M264.725,401.947l-10.31-.589.047-.815,9.655.551,2.362-8.4.786.221Z" transform="translate(-251.238 -387.286)" fill="#fff"/>
            <path id="Path_4370" data-name="Path 4370" d="M269.368,409.852l-10.31-.589.047-.815,9.655.551,2.362-8.4.786.221Z" transform="translate(-252.703 -389.781)" fill="#fff"/>
            <path id="Path_4371" data-name="Path 4371" d="M274.01,417.758l-10.311-.589.047-.815,9.656.551,2.361-8.4.786.221Z" transform="translate(-254.169 -392.277)" fill="#fff"/>
            <path id="Path_4372" data-name="Path 4372" d="M278.652,425.664l-10.31-.589.047-.815,9.655.551,2.362-8.4.786.221Z" transform="translate(-255.634 -394.772)" fill="#fff"/>
          </g>
        </g>
      </g>
      <g id="Group_1122" data-name="Group 1122" transform="translate(75.609 16.341)">
        <g id="Group_1119" data-name="Group 1119" transform="translate(8.432 29.884)">
          <path id="Path_4373" data-name="Path 4373" d="M353.8,410.895c-16.65-.306-18.28,27.875-18.28,27.875s21.377,9.045,35.575.344,15.84-31.857,15.84-31.857S375.009,411.286,353.8,410.895Z" transform="translate(-335.321 -407.257)" fill="url(#linear-gradient-13)"/>
          <g id="Group_1118" data-name="Group 1118" transform="translate(0 5.182)">
            <rect id="Rectangle_697" data-name="Rectangle 697" width="47.011" height="0.818" transform="translate(0 25.954) rotate(-28.311)" fill="#fff"/>
            <path id="Path_4374" data-name="Path 4374" d="M391.784,428.605l-9.2-4.7,2.371-9.076.791.206-2.205,8.44,8.611,4.4Z" transform="translate(-350.177 -414.83)" fill="#fff"/>
            <path id="Path_4375" data-name="Path 4375" d="M383.785,433.083l-9.2-4.7,2.37-9.076.791.206-2.2,8.44,8.611,4.4Z" transform="translate(-347.652 -416.243)" fill="#fff"/>
            <path id="Path_4376" data-name="Path 4376" d="M375.784,437.561l-9.2-4.7,2.37-9.075.791.206-2.2,8.441,8.611,4.4Z" transform="translate(-345.127 -417.656)" fill="#fff"/>
            <path id="Path_4377" data-name="Path 4377" d="M367.784,442.039l-9.2-4.7,2.37-9.075.791.206-2.2,8.441,8.611,4.4Z" transform="translate(-342.601 -419.07)" fill="#fff"/>
            <path id="Path_4378" data-name="Path 4378" d="M359.785,446.516l-9.2-4.7,2.37-9.076.791.206-2.205,8.44,8.611,4.4Z" transform="translate(-340.076 -420.483)" fill="#fff"/>
          </g>
        </g>
        <g id="Group_1121" data-name="Group 1121">
          <path id="Path_4379" data-name="Path 4379" d="M326.954,389.489c-12.046,11.5,6.628,32.669,6.628,32.669s21.554-8.617,25.517-24.791-11.163-33.78-11.163-33.78S342.294,374.845,326.954,389.489Z" transform="translate(-322.906 -363.587)" fill="url(#linear-gradient-14)"/>
          <g id="Group_1120" data-name="Group 1120" transform="translate(9.78 13.469)">
            <rect id="Rectangle_698" data-name="Rectangle 698" width="47.011" height="0.816" transform="translate(0.526 44.99) rotate(-73.138)" fill="#fff"/>
            <path id="Path_4380" data-name="Path 4380" d="M352.032,394.209l-4.7-8.116.707-.41,4.374,7.549,9.216-2.932.248.778Z" transform="translate(-340.396 -384.031)" fill="#fff"/>
            <path id="Path_4381" data-name="Path 4381" d="M349.5,403.02l-4.7-8.117.706-.41,4.373,7.549,9.216-2.932.248.778Z" transform="translate(-339.597 -386.813)" fill="#fff"/>
            <path id="Path_4382" data-name="Path 4382" d="M346.966,411.83l-4.7-8.117.706-.41,4.374,7.549,9.216-2.932.248.778Z" transform="translate(-338.797 -389.594)" fill="#fff"/>
            <path id="Path_4383" data-name="Path 4383" d="M344.433,420.641l-4.7-8.116.707-.41,4.374,7.548,9.216-2.932.248.778Z" transform="translate(-337.997 -392.375)" fill="#fff"/>
            <path id="Path_4384" data-name="Path 4384" d="M341.9,429.453l-4.7-8.116.707-.41,4.374,7.548,9.216-2.932.248.778Z" transform="translate(-337.198 -395.157)" fill="#fff"/>
          </g>
        </g>
      </g>
      <g id="Group_1123" data-name="Group 1123" transform="translate(52.162 26.498)">
        <path id="Path_4385" data-name="Path 4385" d="M322.815,416.207c1.215-9.454-5.235-16.483-12.876-20.959a7.637,7.637,0,0,1-1.952-3.088c-.727-2.277-.647-4.688-.961-7.026-.578-4.3-6.07-6.39-9.833-6.676a7.561,7.561,0,0,0-5.7,1.749c-1.663,1.4-2.238,4.275-2.6,6.3a18.2,18.2,0,0,0,1.054,9.6,29.054,29.054,0,0,0,1.31,3c4.306,6.467,11.539,9.161,18.488,12.915,3.957,2.2,5.744,6.841,7.177,11.391a2.715,2.715,0,0,0,2.165,1.557,1.952,1.952,0,0,0,2.094-.688,6.41,6.41,0,0,0,1.167-2.035,9.726,9.726,0,0,0,.582-2.991A22.884,22.884,0,0,0,322.815,416.207Z" transform="translate(-288.643 -378.43)" fill="url(#linear-gradient-15)"/>
        <path id="Path_4386" data-name="Path 4386" d="M324.445,428.239a13.529,13.529,0,0,1-.047-1.888c-.094-.856-.1-1.7-.263-2.55-.126-.666-.211-1.343-.308-2.017a.182.182,0,0,0,.039-.034,4.233,4.233,0,0,0,.8-2.611,11.18,11.18,0,0,0-.159-2.225,21.7,21.7,0,0,1-.411-2.416.32.32,0,0,0-.641,0,35.384,35.384,0,0,0,.192,3.782,8.455,8.455,0,0,1-.175,1.594,8.331,8.331,0,0,0-.432-1.274,29.489,29.489,0,0,0-5-7.59,12.12,12.12,0,0,0-.5-2.614,13.524,13.524,0,0,0-2.212-4.755c-.265-.357-.86-.043-.614.354a26.479,26.479,0,0,1,1.673,4.255,4.006,4.006,0,0,1,.239,1.18l-.132-.145c-1.433-1.558-3.2-2.884-4.714-4.38-.678-.671-1.414-1.372-2.115-2.1a9.99,9.99,0,0,0,.189-4.109c-.1-1.567-1.069-2.867-1.438-4.345-.062-.246-.481-.2-.45.062.178,1.451.785,2.824.965,4.289a17.411,17.411,0,0,1-.145,3.159c-.3-.344-.591-.691-.852-1.042-2.36-3.164-5.741-7.138-5.1-11.379a.366.366,0,0,0-.707-.19c-.849,2.978.508,6.038,2.138,8.552a12.041,12.041,0,0,1-2.191-1.29,16.933,16.933,0,0,1-3.229-3.275.252.252,0,0,0-.436.252c1.222,2.177,4.173,5.655,6.951,5.889a61.241,61.241,0,0,0,6.91,7.8l.028.027c-.927-.167-1.978-.155-2.78-.357a25.668,25.668,0,0,1-5.886-2.739.2.2,0,0,0-.2.335,20.989,20.989,0,0,0,5.242,3.257c1.275.451,3.378,1.072,4.777.614,1.189,1.131,2.4,2.262,3.535,3.452a2.047,2.047,0,0,0,.116.206.435.435,0,0,0,.24.172,26.69,26.69,0,0,1,2.664,3.305c-.089-.036-.175-.077-.267-.111-1.28-.469-2.513-.983-3.773-1.512a.343.343,0,0,0-.347.592,15.446,15.446,0,0,0,2.935,1.767A11.987,11.987,0,0,1,320.4,417a4.389,4.389,0,0,0,.711.313,17.839,17.839,0,0,1,1.578,5.692c.159,1.116.255,2.236.4,3.354a10.42,10.42,0,0,0,.144,2.211C323.5,429.325,324.7,429.015,324.445,428.239Z" transform="translate(-291.714 -381.765)" fill="#36b2ea"/>
      </g>
      <g id="Group_1124" data-name="Group 1124" transform="translate(17.27 44.318)">
        <path id="Path_4387" data-name="Path 4387" d="M326.011,432.109c-2.507-1.351-5.724-1-8.61-.469a23.568,23.568,0,0,0,3.024-2.935c2.548-3.036,2.906-9.866-.844-12.232-4.645-2.929-9.88.009-13.86,2.741-.377.259-.727.538-1.087.81.09-.59.164-1.185.2-1.8.222-3.511,1.107-10.916-3.775-11.636-4.825-.713-8.052,5.049-10.137,8.46-.08.131-.151.264-.228.4-.061-.366-.11-.734-.179-1.1-.5-2.664-2.241-11.732-7.214-9.537-4.817,2.126-6.472,7.11-7.84,11.823-.061.211-.106.422-.158.634a25.583,25.583,0,0,0-1.215-2.876c-1.71-3.374-4.574-11.136-9.836-8.581-4.453,2.162-3.9,9.324-3.785,13.42a30.412,30.412,0,0,0,2.5,10.485,15.929,15.929,0,0,0-1.946-1.13c-3.765-1.791-7.091-3.4-11.33-3.57-3.565-.143-13.675,1.784-11.806,7.355,1.687,5.03,9.8,7.784,14.355,9.043,4.061,1.122,8.109,2.327,12.247,3.133,1.18.23,17.306,3.018,23.849,3.144,10.6.2,21.673-.335,31.984-2.858,2.853-.7,6.977-1.944,8.4-4.835C330.267,436.83,329.058,433.75,326.011,432.109Z" transform="translate(-237.654 -404.47)" fill="url(#linear-gradient-16)"/>
        <path id="Path_4388" data-name="Path 4388" d="M282.891,457.57c-1.079-1.618-2.472-2.311-4.193-3.179-2.672-1.346-5.267-3.027-7.888-4.491-4.463-2.493-10.339-4.28-15.3-5.583a.674.674,0,0,0-.357,1.3c4.2,1.486,8.25,3.48,12.475,4.986,2.824,1.007,5.512,2.856,8.124,4.315,1.985,1.109,4.723,1.769,6.456,3.177C282.567,458.383,283.183,458.009,282.891,457.57Z" transform="translate(-243.032 -417.041)" fill="#2ba0ca"/>
        <path id="Path_4389" data-name="Path 4389" d="M292.691,447.065c-2.305-4.714-5.074-9.561-6.912-14.5-1.535-4.12-3.016-9.488-6-12.839a.7.7,0,0,0-1.095.845c2.717,4.069,2.914,9.758,5.1,14.163,2.294,4.623,3.628,9.842,7.847,13.143A.676.676,0,0,0,292.691,447.065Z" transform="translate(-250.573 -409.221)" fill="#2ba0ca"/>
        <path id="Path_4390" data-name="Path 4390" d="M307.093,448.492c-1.655-5.087-1.538-11.681-1.483-17a78.863,78.863,0,0,1,.573-9.786c.293-2.156,1-3.94.582-6.084-.125-.641-.968-.5-1.159,0-2.1,5.48-1.963,11.293-1.909,17.084.047,5.03.3,11.575,2.649,16.1A.41.41,0,0,0,307.093,448.492Z" transform="translate(-258.495 -407.854)" fill="#2ba0ca"/>
        <path id="Path_4391" data-name="Path 4391" d="M326.29,415.488c-3.577,3.832-3.988,10.062-5.459,14.887a62.338,62.338,0,0,0-2.76,17.25.866.866,0,0,0,1.731,0c.276-2.9,1.24-5.66,1.684-8.536a71.2,71.2,0,0,1,1.71-8.063c1.377-5,2.449-10.105,3.9-15.072A.484.484,0,0,0,326.29,415.488Z" transform="translate(-263.04 -407.904)" fill="#2ba0ca"/>
        <path id="Path_4392" data-name="Path 4392" d="M340.354,428.838c-3.287.215-6.424,5.555-8.18,7.929a55.732,55.732,0,0,0-7.947,14.4c-.3.823,1.013,1.365,1.406.593,4.113-8.086,9.632-15.062,15.137-22.2A.483.483,0,0,0,340.354,428.838Z" transform="translate(-264.969 -412.162)" fill="#2ba0ca"/>
        <path id="Path_4393" data-name="Path 4393" d="M354.254,450.73c-1.111.707-4.078.759-5.447,1.177-1.808.552-3.6,1.143-5.415,1.665a22.3,22.3,0,0,0-8.418,4.18c-.629.524.2,1.594.874,1.133,3.341-2.29,7.33-3.219,11.183-4.279,2.259-.621,6.562-1.07,7.781-3.318C355,450.942,354.614,450.5,354.254,450.73Z" transform="translate(-268.306 -419.053)" fill="#2ba0ca"/>
      </g>
    </g>
  </g>
</svg>
